<ttFont>
          <CharString index="0">
            hlineto
            -106 callsubr
            return
          </CharString>
          <CharString index="1">
            -15 -8 -88 callgsubr
            return
          </CharString>
          <CharString index="2">
            vlineto
            -103 callsubr
            return
          </CharString>
          <CharString index="3">
            rmoveto
            -107 callgsubr
            return
          </CharString>
          <CharString index="4">
            -77 callsubr
            -104 callgsubr
            return
          </CharString>
          <CharString index="5">
            hlineto
            -98 callgsubr
            return
          </CharString>
          <CharString index="6">
            292 callgsubr
            -104 -71 callgsubr
            67 vlineto
            30 6 6 30 vhcurveto
            return
          </CharString>
          <CharString index="7">
            -77 callgsubr
            -160 vlineto
            338 callgsubr
            return
          </CharString>
          <CharString index="8">
            -93 45 -34 86 vhcurveto
            -101 callgsubr
          </CharString>
          <CharString index="9">
            239 callgsubr
            -299 182 callgsubr
            return
          </CharString>
          <CharString index="10">
            -91 callgsubr
            endchar
          </CharString>
          <CharString index="11">
            -95 callgsubr
            127 return
          </CharString>
          <CharString index="12">
            hlineto
            23 16 6 10 -79 callsubr
          </CharString>
          <CharString index="13">
            168 -95 callsubr
          </CharString>
          <CharString index="14">
            hlineto
            -15 259 callsubr
            return
          </CharString>
          <CharString index="15">
            -67 callgsubr
            97 -170 -81 -86 callsubr
            return
          </CharString>
          <CharString index="16">
            rmoveto
            -90 callsubr
            82 hlineto
            return
          </CharString>
          <CharString index="17">
            -26 -8 -8 -26 vhcurveto
            -151 294 callgsubr
            return
          </CharString>
          <CharString index="18">
            vlineto
            -80 callsubr
            return
          </CharString>
          <CharString index="19">
            -93 51 -34 110 vhcurveto
            -94 callsubr
          </CharString>
          <CharString index="20">
            rmoveto
            -65 -7 -35 -28 -70 vvcurveto
            -53 vlineto
            -84 50 -23 73 vhcurveto
            41 93 -31 callgsubr
            40 -85 callgsubr
            16 -81 callsubr
            -219 vlineto
            168 callsubr
            -241 167 callgsubr
            81 callsubr
            113 -33 -107 callsubr
            98 vlineto
            26 8 8 26 vhcurveto
            161 hlineto
            return
          </CharString>
          <CharString index="21">
            vlineto
            -83 callsubr
            return
          </CharString>
          <CharString index="22">
            -45 callgsubr
            -151 -107 callsubr
            return
          </CharString>
          <CharString index="23">
            148 callsubr
            202 -68 callgsubr
            return
          </CharString>
          <CharString index="24">
            -15 -8 -5 -9 vhcurveto
            -13 -93 callsubr
            return
          </CharString>
          <CharString index="25">
            hlineto
            -71 callsubr
            return
          </CharString>
          <CharString index="26">
            hlineto
            -69 callgsubr
            return
          </CharString>
          <CharString index="27">
            19 -105 callgsubr
            return
          </CharString>
          <CharString index="28">
            10 hvcurveto
            -69 callsubr
          </CharString>
          <CharString index="29">
            -37 17 -15 30 -4 vhcurveto
            -41 callgsubr
            return
          </CharString>
          <CharString index="30">
            -93 41 -34 -22 callsubr
            return
          </CharString>
          <CharString index="31">
            -113 60 -40 callsubr
            113 -60 return
          </CharString>
          <CharString index="32">
            160 callsubr
            -65 170 49 vlineto
            15 8 5 9 80 callsubr
            -134 -18 callsubr
            return
          </CharString>
          <CharString index="33">
            225 -91 callsubr
            return
          </CharString>
          <CharString index="34">
            264 callgsubr
            hlineto
            -66 callsubr
            return
          </CharString>
          <CharString index="35">
            -8 -76 callgsubr
            return
          </CharString>
          <CharString index="36">
            109 31 34 73 hvcurveto
            return
          </CharString>
          <CharString index="37">
            -37 -15 -17 -30 -4 hvcurveto
            -5 hlineto
            30 -4 -15 17 -37 hhcurveto
            return
          </CharString>
          <CharString index="38">
            -94 -97 callsubr
          </CharString>
          <CharString index="39">
            hlineto
            -25 -9 8 26 hvcurveto
            83 80 vlineto
            105 38 32 83 hvcurveto
            159 vlineto
            10 -2 8 -4 7 vhcurveto
            return
          </CharString>
          <CharString index="40">
            rmoveto
            122 129 -122 hlineto
            return
          </CharString>
          <CharString index="41">
            110 callsubr
            -152 -105 callsubr
            324 return
          </CharString>
          <CharString index="42">
            -314 rmoveto
            -78 callgsubr
            return
          </CharString>
          <CharString index="43">
            -89 callsubr
            29 hlineto
            return
          </CharString>
          <CharString index="44">
            hlineto
            -65 callgsubr
            return
          </CharString>
          <CharString index="45">
            rmoveto
            -85 callsubr
            return
          </CharString>
          <CharString index="46">
            52 callsubr
            -103 24 callgsubr
            return
          </CharString>
          <CharString index="47">
            26 8 -8 -26 hvcurveto
            return
          </CharString>
          <CharString index="48">
            -27 callsubr
            hlineto
            endchar
          </CharString>
          <CharString index="49">
            hlineto
            17 8 -7 -15 hvcurveto
            return
          </CharString>
          <CharString index="50">
            225 -62 callsubr
            return
          </CharString>
          <CharString index="51">
            61 148 callgsubr
            return
          </CharString>
          <CharString index="52">
            -85 callgsubr
            7 -81 callsubr
            return
          </CharString>
          <CharString index="53">
            9 callsubr
            -42 119 callgsubr
            42 -58 callsubr
            -120 147 rmoveto
            3 callgsubr
            148 75 callsubr
          </CharString>
          <CharString index="54">
            -89 callgsubr
            -33 callsubr
            return
          </CharString>
          <CharString index="55">
            170 335 vlineto
            19 8 5 15 316 callsubr
            return
          </CharString>
          <CharString index="56">
            hlineto
            -42 callgsubr
            return
          </CharString>
          <CharString index="57">
            -59 callgsubr
            213 170 60 return
          </CharString>
          <CharString index="58">
            -93 callgsubr
            134 vlineto
            202 callsubr
            return
          </CharString>
          <CharString index="59">
            -93 51 -34 110 vhcurveto
            return
          </CharString>
          <CharString index="60">
            -38 callgsubr
            -160 vlineto
            338 callgsubr
            return
          </CharString>
          <CharString index="61">
            -106 callgsubr
            -56 vlineto
            -89 callgsubr
            69 -81 callsubr
            -59 157 callsubr
            return
          </CharString>
          <CharString index="62">
            vlineto
            74 -41 32 -89 vhcurveto
            -53 47 callsubr
            return
          </CharString>
          <CharString index="63">
            -12 callgsubr
            -258 6 callsubr
            return
          </CharString>
          <CharString index="64">
            25 -32 27 -34 10 -12 52 -63 rcurveline
            -91 -107 callsubr
            return
          </CharString>
          <CharString index="65">
            -64 -12 callgsubr
            return
          </CharString>
          <CharString index="66">
            vlineto
            15 8 7 17 vhcurveto
            return
          </CharString>
          <CharString index="67">
            -529 -97 callgsubr
            return
          </CharString>
          <CharString index="68">
            rmoveto
            1 callsubr
            84 -140 rlineto
            -11 -3 -7 -3 -12 hhcurveto
            return
          </CharString>
          <CharString index="69">
            vlineto
            19 -5 14 -9 11 vhcurveto
            return
          </CharString>
          <CharString index="70">
            -100 callgsubr
            84 -85 callgsubr
            return
          </CharString>
          <CharString index="71">
            215 -51 callgsubr
            return
          </CharString>
          <CharString index="72">
            vlineto
            -17 callsubr
            return
          </CharString>
          <CharString index="73">
            vlineto
            -53 callsubr
            return
          </CharString>
          <CharString index="74">
            63 hlineto
            15 8 -5 -15 hvcurveto
            -60 215 callgsubr
            36 -170 -52 vlineto
            return
          </CharString>
          <CharString index="75">
            -60 callsubr
            -83 0 callsubr
            return
          </CharString>
          <CharString index="76">
            -105 callsubr
            114 return
          </CharString>
          <CharString index="77">
            -57 callsubr
            117 -62 callgsubr
            36 274 callsubr
            -64 rmoveto
            -15 -72 callsubr
            -195 84 184 hlineto
            -60 callsubr
            -388 -280 91 callsubr
            return
          </CharString>
          <CharString index="78">
            vlineto
            -75 40 -49 107 vhcurveto
            return
          </CharString>
          <CharString index="79">
            34 93 hvcurveto
            return
          </CharString>
          <CharString index="80">
            -103 callsubr
            -50 callsubr
            return
          </CharString>
          <CharString index="81">
            159 callsubr
            45 -144 215 callsubr
            return
          </CharString>
          <CharString index="82">
            rmoveto
            51 231 49 -231 rlineto
            47 -220 rmoveto
            176 hlineto
            -165 642 rlineto
            -213 hlineto
            -165 -642 rlineto
            172 hlineto
            21 96 rlineto
            154 hlineto
            endchar
          </CharString>
          <CharString index="83">
            hhcurveto
            -94 callsubr
          </CharString>
          <CharString index="84">
            -12 callgsubr
            -120 -31 callsubr
            return
          </CharString>
          <CharString index="85">
            120 vhcurveto
            return
          </CharString>
          <CharString index="86">
            209 callsubr
            -86 -45 -34 -93 hvcurveto
            return
          </CharString>
          <CharString index="87">
            -80 callsubr
            69 113 -69 -107 callsubr
            return
          </CharString>
          <CharString index="88">
            vlineto
            -17 callgsubr
            return
          </CharString>
          <CharString index="89">
            vlineto
            -57 callgsubr
            return
          </CharString>
          <CharString index="90">
            19 10 -86 callgsubr
            return
          </CharString>
          <CharString index="91">
            -97 -98 -23 callsubr
            return
          </CharString>
          <CharString index="92">
            18 callgsubr
            36 23 10 18 13 315 callgsubr
            59 hhcurveto
            return
          </CharString>
          <CharString index="93">
            vlineto
            75 -40 49 -107 vhcurveto
            return
          </CharString>
          <CharString index="94">
            -36 callsubr
            314 75 vlineto
            return
          </CharString>
          <CharString index="95">
            109 vhcurveto
            return
          </CharString>
          <CharString index="96">
            192 callsubr
            -129 -75 callgsubr
            return
          </CharString>
          <CharString index="97">
            -106 callsubr
            37 vlineto
            -20 callsubr
            81 -56 callgsubr
            -130 -75 callgsubr
            -89 vlineto
            269 callgsubr
            66 hlineto
            313 callgsubr
            return
          </CharString>
          <CharString index="98">
            215 callgsubr
            36 -170 -52 41 callgsubr
            return
          </CharString>
          <CharString index="99">
            -70 callgsubr
            -130 -198 hlineto
            return
          </CharString>
          <CharString index="100">
            -77 callsubr
            -25 callgsubr
          </CharString>
          <CharString index="101">
            -57 callsubr
            117 -62 callgsubr
            36 13 callsubr
            -618 -314 91 callsubr
            return
          </CharString>
          <CharString index="102">
            -62 callgsubr
            89 -38 callsubr
            return
          </CharString>
          <CharString index="103">
            -17 -8 7 15 hvcurveto
            205 70 callgsubr
            return
          </CharString>
          <CharString index="104">
            -15 -8 5 return
          </CharString>
          <CharString index="105">
            rmoveto
            -495 149 callgsubr
            -42 -55 callgsubr
            495 -175 -518 -29 callsubr
            148 216 callsubr
            vlineto
            endchar
          </CharString>
          <CharString index="106">
            -330 -332 rlineto
            160 hlineto
            170 172 rlineto
            113 callsubr
          </CharString>
          <CharString index="107">
            -81 callgsubr
            -125 return
          </CharString>
          <CharString index="108">
            -106 callsubr
            118 vlineto
            71 -9 50 0 vhcurveto
            0 15 -52 34 -57 vhcurveto
            return
          </CharString>
          <CharString index="109">
            -113 174 hlineto
            -32 callsubr
            -187 hlineto
            return
          </CharString>
          <CharString index="110">
            230 113 rmoveto
            return
          </CharString>
          <CharString index="111">
            26 callsubr
            -136 -75 callgsubr
            -104 193 callsubr
            204 6 callgsubr
            return
          </CharString>
          <CharString index="112">
            vlineto
            4 callsubr
            return
          </CharString>
          <CharString index="113">
            vlineto
            207 callsubr
            return
          </CharString>
          <CharString index="114">
            170 529 return
          </CharString>
          <CharString index="115">
            -113 60 vlineto
            -18 callgsubr
            return
          </CharString>
          <CharString index="116">
            rmoveto
            96 callgsubr
            return
          </CharString>
          <CharString index="117">
            -80 callsubr
            23 113 -272 -113 73 hlineto
            143 callsubr
            return
          </CharString>
          <CharString index="118">
            -359 185 callsubr
          </CharString>
          <CharString index="119">
            338 callgsubr
            -56 callsubr
            return
          </CharString>
          <CharString index="120">
            -38 callsubr
            82 hlineto
            return
          </CharString>
          <CharString index="121">
            -60 callsubr
            -98 vlineto
            -10 callgsubr
            return
          </CharString>
          <CharString index="122">
            -107 callsubr
            120 50 callsubr
          </CharString>
          <CharString index="123">
            rmoveto
            170 89 113 -557 236 callsubr
            -57 254 callgsubr
            -238 vlineto
            -84 33 -35 94 249 callgsubr
            149 rlineto
            86 8 31 37 80 vvcurveto
            67 callsubr
          </CharString>
          <CharString index="124">
            43 callsubr
            -76 28 -37 76 -11 234 callgsubr
            76 10 27 37 76 247 callgsubr
          </CharString>
          <CharString index="125">
            -5 -15 hvcurveto
            return
          </CharString>
          <CharString index="126">
            -314 vlineto
            -49 callsubr
            return
          </CharString>
          <CharString index="127">
            hlineto
            15 10 -5 -19 hvcurveto
            return
          </CharString>
          <CharString index="128">
            17 hlineto
            76 25 31 59 hvcurveto
            60 -135 -31 vlineto
            -14 -6 -7 -12 vhcurveto
            -21 -43 52 -58 hhcurveto
            -19 hlineto
            -75 -24 -36 -59 hvcurveto
            -55 135 return
          </CharString>
          <CharString index="129">
            128 callsubr
            314 75 69 callsubr
            return
          </CharString>
          <CharString index="130">
            -107 -40 -49 -75 hvcurveto
            return
          </CharString>
          <CharString index="131">
            vlineto
            -73 31 -34 109 vhcurveto
            64 113 -11 hlineto
            -15 -8 5 15 hvcurveto
            206 vlineto
            15 8 5 15 138 callgsubr
            return
          </CharString>
          <CharString index="132">
            hlineto
            -15 -8 6 12 hvcurveto
            7 vlineto
            12 8 6 15 vhcurveto
            return
          </CharString>
          <CharString index="133">
            -45 callgsubr
            -126 -29 callgsubr
            87 -56 callgsubr
            return
          </CharString>
          <CharString index="134">
            hlineto
            160 callsubr
            return
          </CharString>
          <CharString index="135">
            rmoveto
            -129 122 129 vlineto
            endchar
          </CharString>
          <CharString index="136">
            vlineto
            -2 callgsubr
            return
          </CharString>
          <CharString index="137">
            rmoveto
            -1216 104 callsubr
            340 113 -316 -68 callsubr
            539 99 callsubr
            -90 vlineto
            -93 callgsubr
            74 vlineto
            202 callsubr
            -42 callsubr
            -100 vlineto
            338 callgsubr
            72 hlineto
            21 16 3 7 13 hvcurveto
            -50 16 42 -20 65 58 callsubr
          </CharString>
          <CharString index="138">
            vlineto
            -24 callgsubr
          </CharString>
          <CharString index="139">
            -69 25 -37 49 -14 vhcurveto
            -101 -165 rlineto
            179 hlineto
            return
          </CharString>
          <CharString index="140" raw="1">
            3a0a4f3a 1d0b  
          </CharString>
          <CharString index="141">
            -113 60 -176 78 callgsubr
            return
          </CharString>
          <CharString index="142">
            hlineto
            25 callgsubr
            return
          </CharString>
          <CharString index="143">
            -12 callsubr
            136 callsubr
            return
          </CharString>
          <CharString index="144">
            rmoveto
            64 callsubr
            -238 vlineto
            -78 29 -37 81 -9 234 callgsubr
            71 12 26 37 74 66 callsubr
            hlineto
            endchar
          </CharString>
          <CharString index="145">
            69 callgsubr
            -42 callsubr
            return
          </CharString>
          <CharString index="146">
            vlineto
            -89 6 -14 -47 callsubr
            return
          </CharString>
          <CharString index="147">
            rmoveto
            -230 -202 -78 90 -73 callgsubr
            -74 return
          </CharString>
          <CharString index="148">
            -107 -40 103 callsubr
            40 -49 107 vhcurveto
            107 -13 callgsubr
            69 -164 -46 149 callgsubr
            -17 hlineto
            -4 callsubr
            17 8 -7 -15 hvcurveto
            -46 return
          </CharString>
          <CharString index="149">
            -100 callsubr
            82 hlineto
            return
          </CharString>
          <CharString index="150">
            89 callgsubr
            -528 337 callsubr
            vlineto
            -88 -8 -31 -36 -81 vvcurveto
            -218 vlineto
            return
          </CharString>
          <CharString index="151">
            -51 callgsubr
            294 75 vlineto
            return
          </CharString>
          <CharString index="152">
            58 104 56 -104 rlineto
            139 hlineto
            return
          </CharString>
          <CharString index="153">
            -45 callgsubr
            -164 -107 callsubr
            56 13 vlineto
            163 callgsubr
            153 -45 callsubr
            -63 90 36 -55 callsubr
            -110 -81 callgsubr
            -214 hlineto
            4 7 2 8 10 vvcurveto
            95 vlineto
            10 -2 8 -4 7 vhcurveto
            55 113 -502 375 callsubr
            hlineto
            -60 callsubr
            -77 -18 callsubr
            88 137 callsubr
            148 301 -66 vlineto
            -48 callsubr
            return
          </CharString>
          <CharString index="154">
            hlineto
            121 callgsubr
            return
          </CharString>
          <CharString index="155">
            -93 41 -34 120 vhcurveto
            82 callsubr
          </CharString>
          <CharString index="156">
            32 callsubr
            95 callsubr
            return
          </CharString>
          <CharString index="157">
            -35 callsubr
            213 170 60 hlineto
            endchar
          </CharString>
          <CharString index="158">
            -144 hlineto
            -90 callgsubr
            return
          </CharString>
          <CharString index="159">
            -81 callgsubr
            -11 return
          </CharString>
          <CharString index="160">
            85 callsubr
            91 vlineto
            73 -31 34 -109 vhcurveto
            -69 296 callgsubr
            return
          </CharString>
          <CharString index="161">
            -106 callgsubr
            -47 -75 callgsubr
            -74 vlineto
            -48 callsubr
            return
          </CharString>
          <CharString index="162">
            rmoveto
            96 -14 callsubr
            -142 hlineto
            3 callgsubr
            142 -13 callgsubr
            231 -225 -111 50 -107 vlineto
            -15 -8 -7 -17 vhcurveto
            -36 119 callsubr
            36 hlineto
            17 8 -7 -15 hvcurveto
            -83 vlineto
            endchar
          </CharString>
          <CharString index="163">
            109 -102 hlineto
            -71 9 -50 0 vhcurveto
            0 -15 52 -34 57 vhcurveto
            62 callsubr
            return
          </CharString>
          <CharString index="164">
            167 callsubr
            -304 vlineto
            26 callsubr
            return
          </CharString>
          <CharString index="165">
            hhcurveto
            61 271 callsubr
          </CharString>
          <CharString index="166">
            62 157 callgsubr
            return
          </CharString>
          <CharString index="167">
            rmoveto
            301 callgsubr
            -40 -15 336 callsubr
            113 546 vlineto
            -768 -338 22 callsubr
            969 451 rmoveto
            -1251 22 callgsubr
            295 -89 callsubr
            45 -114 87 callsubr
          </CharString>
          <CharString index="168">
            vlineto
            48 callsubr
          </CharString>
          <CharString index="169">
            -62 -224 -39 callsubr
            return
          </CharString>
          <CharString index="170">
            -314 -104 callsubr
            return
          </CharString>
          <CharString index="171">
            -528 33 callgsubr
            return
          </CharString>
          <CharString index="172">
            181 125 -181 131 210 125 -385 -642 394 125 return
          </CharString>
          <CharString index="173">
            vvcurveto
            -50 callsubr
            return
          </CharString>
          <CharString index="174">
            -34 callgsubr
            endchar
          </CharString>
          <CharString index="175">
            128 callgsubr
            -128 131 callsubr
            return
          </CharString>
          <CharString index="176">
            -314 vlineto
            168 callsubr
            return
          </CharString>
          <CharString index="177">
            205 callsubr
            220 93 -188 -107 callsubr
            115 -89 callsubr
            145 20 callsubr
            -4 -61 vlineto
            -61 -36 -20 -55 hvcurveto
            -24 94 20 vlineto
            16 5 7 18 vhcurveto
            41 -52 85 121 hlineto
            56 -28 29 -72 vhcurveto
            -155 139 callsubr
          </CharString>
          <CharString index="178">
            rmoveto
            -280 -46 callgsubr
            12 hvcurveto
            14 vlineto
            13 277 callgsubr
            129 344 callsubr
            -41 -74 hlineto
            -109 -31 -29 -63 hvcurveto
            -41 vlineto
            -63 31 -30 -12 callsubr
            69 hlineto
            15 8 -4 -13 hvcurveto
            -28 vlineto
            -13 -8 -4 -15 vhcurveto
            -39 32 -170 -232 170 111 278 callgsubr
            29 63 hvcurveto
            40 vlineto
            7 -1 6 -1 6 vhcurveto
            72 -80 hlineto
            -285 -241 rlineto
            149 hlineto
            136 121 rlineto
            -62 -97 callsubr
          </CharString>
          <CharString index="179">
            -359 -97 callgsubr
            return
          </CharString>
          <CharString index="180">
            -299 rmoveto
            52 hlineto
            115 166 rlineto
            87 -167 vlineto
            return
          </CharString>
          <CharString index="181">
            -314 hlineto
            168 callsubr
            return
          </CharString>
          <CharString index="182">
            -13 callgsubr
            394 -14 callsubr
            endchar
          </CharString>
          <CharString index="183">
            109 callgsubr
            -130 vlineto
            -93 callgsubr
            return
          </CharString>
          <CharString index="184">
            170 344 vlineto
            21 9 9 18 122 callgsubr
            -352 170 return
          </CharString>
          <CharString index="185">
            rlineto
            139 hlineto
            45 callsubr
            return
          </CharString>
          <CharString index="186">
            vlineto
            -15 callgsubr
            return
          </CharString>
          <CharString index="187">
            vhcurveto
            13 -81 callsubr
            return
          </CharString>
          <CharString index="188">
            -89 callsubr
            33 return
          </CharString>
          <CharString index="189">
            -104 callgsubr
            154 60 -359 -97 callsubr
          </CharString>
          <CharString index="190">
            -104 callsubr
            125 159 callgsubr
            return
          </CharString>
          <CharString index="191">
            vlineto
            81 callgsubr
            return
          </CharString>
          <CharString index="192">
            305 callgsubr
            vlineto
            -46 callsubr
            return
          </CharString>
          <CharString index="193">
            rmoveto
            168 callsubr
            -68 -107 callsubr
            44 81 callsubr
            113 -33 -107 callsubr
            55 vlineto
            26 8 8 26 vhcurveto
            80 hlineto
            3 callsubr
            -574 -113 66 hlineto
            192 callsubr
            -86 -75 callgsubr
            -96 vlineto
            -72 34 -34 74 -1 vhcurveto
            184 callsubr
          </CharString>
          <CharString index="194">
            hlineto
            -93 41 -34 120 vhcurveto
            86 307 callgsubr
          </CharString>
          <CharString index="195">
            hvcurveto
            -4 hlineto
            -4 27 -7 29 -6 27 -8 35 rcurveline
            -154 hlineto
            48 -63 38 -50 22 -30 41 -44 rlinecurve
            -5 hlineto
            -46 46 -36 33 -58 52 -63 56 rcurveline
            return
          </CharString>
          <CharString index="196">
            170 callsubr
            52 30 24 40 9 hvcurveto
            -64 return
          </CharString>
          <CharString index="197">
            -45 callgsubr
            -164 -107 callsubr
            75 -70 callgsubr
            -458 -12 callgsubr
            -91 -105 callsubr
            85 60 -85 vlineto
            -48 callsubr
            214 hlineto
            return
          </CharString>
          <CharString index="198">
            -104 callsubr
            97 -85 callgsubr
            45 hlineto
            return
          </CharString>
          <CharString index="199">
            -678 94 callsubr
          </CharString>
          <CharString index="200">
            -103 callsubr
            122 78 -327 -97 callsubr
          </CharString>
          <CharString index="201">
            -39 callgsubr
            endchar
          </CharString>
          <CharString index="202">
            93 157 rlineto
            -97 170 return
          </CharString>
          <CharString index="203">
            292 callgsubr
            -70 170 33 vlineto
            30 6 6 30 vhcurveto
            return
          </CharString>
          <CharString index="204">
            -550 101 callsubr
          </CharString>
          <CharString index="205">
            -89 6 -14 107 callsubr
            return
          </CharString>
          <CharString index="206">
            -314 hlineto
            -77 callgsubr
            return
          </CharString>
          <CharString index="207">
            -17 vhcurveto
            -44 -55 callgsubr
            return
          </CharString>
          <CharString index="208">
            -35 callgsubr
            endchar
          </CharString>
          <CharString index="209">
            -113 257 -57 -63 hlineto
            -66 callgsubr
            return
          </CharString>
          <CharString index="210">
            136 callgsubr
            -75 return
          </CharString>
          <CharString index="211">
            375 callsubr
            145 callgsubr
            -357 hlineto
            114 callgsubr
            return
          </CharString>
          <CharString index="212">
            rmoveto
            168 callsubr
            -162 hlineto
            299 callsubr
            82 hlineto
            3 callsubr
            -668 235 callgsubr
            95 callsubr
            529 60 vlineto
            endchar
          </CharString>
          <CharString index="213">
            38 callgsubr
            322 hmoveto
            113 return
          </CharString>
          <CharString index="214">
            18 callgsubr
            16 277 callsubr
            -56 7 35 -27 97 hhcurveto
            return
          </CharString>
          <CharString index="215">
            -33 vlineto
            172 callgsubr
            33 -150 -26 -29 callsubr
            return
          </CharString>
          <CharString index="216">
            -57 35 callgsubr
            return
          </CharString>
          <CharString index="217">
            -126 -54 -32 -83 hvcurveto
            return
          </CharString>
          <CharString index="218">
            rmoveto
            -756 -113 526 -197 -78 311 callgsubr
            -44 -44 callgsubr
            17 -170 -27 vlineto
            -77 callsubr
            86 hlineto
            86 45 17 44 19 hvcurveto
            56 hlineto
            -297 -299 rlineto
            160 hlineto
            170 172 rlineto
            113 callsubr
          </CharString>
          <CharString index="219">
            370 callgsubr
            99 84 callsubr
            -80 192 callgsubr
            -97 vlineto
            -88 37 -35 106 -4 vhcurveto
            -160 -143 rlineto
            194 hlineto
            157 143 rlineto
            return
          </CharString>
          <CharString index="220">
            -92 -97 callsubr
          </CharString>
          <CharString index="221">
            rmoveto
            240 242 rlineto
            160 vlineto
            -400 -402 rlineto
            32 419 159 callsubr
            45 -52 215 callsubr
            -170 -10 rmoveto
            -103 callsubr
            62 130 113 -398 346 callgsubr
            588 220 callgsubr
          </CharString>
          <CharString index="222">
            6 callgsubr
            154 return
          </CharString>
          <CharString index="223">
            -15 -6 6 12 hvcurveto
            27 vlineto
            12 6 6 15 vhcurveto
            73 return
          </CharString>
          <CharString index="224">
            -15 259 callsubr
            24 vlineto
            15 277 callgsubr
            160 return
          </CharString>
          <CharString index="225">
            -204 hlineto
            -89 6 -14 252 callsubr
            return
          </CharString>
          <CharString index="226">
            -55 callgsubr
            368 -41 callsubr
            return
          </CharString>
          <CharString index="227">
            -104 callsubr
            24 -85 callgsubr
            45 hlineto
            return
          </CharString>
          <CharString index="228">
            vlineto
            -93 41 -34 120 vhcurveto
            151 callgsubr
          </CharString>
          <CharString index="229">
            71 -20 642 rmoveto
            -113 608 113 vlineto
            -548 -170 rmoveto
            199 callgsubr
            140 113 -310 -180 -44 callgsubr
            180 vlineto
            378 -156 rmoveto
            -392 -376 rlineto
            179 hlineto
            213 211 rlineto
            return
          </CharString>
          <CharString index="230">
            45 callsubr
            -94 149 rlineto
            74 9 22 34 59 callsubr
            return
          </CharString>
          <CharString index="231">
            hlineto
            -93 41 -34 120 vhcurveto
            82 callgsubr
          </CharString>
          <CharString index="232">
            hhcurveto
            82 callgsubr
          </CharString>
          <CharString index="233">
            -69 callgsubr
            -186 157 callsubr
            197 vlineto
            10 -2 8 -4 7 vhcurveto
            return
          </CharString>
          <CharString index="234">
            168 callsubr
            -22 -107 callsubr
            return
          </CharString>
          <CharString index="235">
            rmoveto
            -106 callsubr
            return
          </CharString>
          <CharString index="236">
            -45 callgsubr
            -164 hlineto
            154 callgsubr
            211 hlineto
            return
          </CharString>
          <CharString index="237">
            rmoveto
            -768 -113 538 -57 -240 -180 215 callsubr
            180 -170 199 callgsubr
            70 -110 vlineto
            -322 -309 rlineto
            179 hlineto
            143 142 rlineto
            -82 -97 callsubr
          </CharString>
          <CharString index="238">
            -105 callsubr
            122 return
          </CharString>
          <CharString index="239">
            rmoveto
            -97 150 rlineto
            -170 hlineto
            133 -150 rlineto
            return
          </CharString>
          <CharString index="240">
            -28 198 495 rmoveto
            15 8 7 17 vhcurveto
            20 -58 callsubr
            -68 vlineto
            -44 -10 -23 -40 -42 vhcurveto
            -190 -204 rlineto
            -114 412 125 -194 vlineto
            124 139 rlineto
            46 51 24 41 70 vvcurveto
            92 vlineto
            75 -42 49 -107 vhcurveto
            -121 141 callgsubr
            -96 175 vlineto
            endchar
          </CharString>
          <CharString index="241">
            -57 callsubr
            114 -62 callgsubr
            return
          </CharString>
          <CharString index="242">
            -68 callgsubr
            -127 170 127 297 callsubr
            return
          </CharString>
          <CharString index="243">
            122 hlineto
            109 31 return
          </CharString>
          <CharString index="244">
            -170 -365 hlineto
            -95 callgsubr
            return
          </CharString>
          <CharString index="245">
            172 callsubr
            -42 callsubr
            -160 vlineto
            return
          </CharString>
          <CharString index="246">
            25 callsubr
            endchar
          </CharString>
          <CharString index="247">
            rmoveto
            239 callgsubr
            return
          </CharString>
          <CharString index="248">
            vlineto
            186 callgsubr
            217 -5 rmoveto
            -642 152 callsubr
          </CharString>
          <CharString index="249">
            -75 callgsubr
            -50 199 callsubr
            513 -170 -86 348 callgsubr
            130 -35 callsubr
            237 170 60 hlineto
            endchar
          </CharString>
          <CharString index="250">
            193 callgsubr
            -100 vlineto
            return
          </CharString>
          <CharString index="251">
            -114 -31 callsubr
            return
          </CharString>
          <CharString index="252">
            235 44 callsubr
            return
          </CharString>
          <CharString index="253">
            -314 92 callgsubr
            return
          </CharString>
          <CharString index="254">
            218 vlineto
            81 -31 36 -88 8 vhcurveto
            59 return
          </CharString>
          <CharString index="255">
            103 113 -50 -93 callsubr
            return
          </CharString>
          <CharString index="256">
            rmoveto
            -528 2 callsubr
            -48 callsubr
            307 113 -275 294 callgsubr
            172 hlineto
            endchar
          </CharString>
          <CharString index="257">
            305 callgsubr
            hlineto
            -46 callsubr
            73 vlineto
            8 -1 357 callsubr
            70 hlineto
            -91 1 return
          </CharString>
          <CharString index="258">
            -48 callsubr
            181 -95 callsubr
          </CharString>
          <CharString index="259">
            -97 callgsubr
            220 callgsubr
          </CharString>
          <CharString index="260">
            -113 238 hlineto
            -60 callsubr
            -68 vlineto
            168 callsubr
            -44 -113 44 173 callgsubr
            -143 215 callgsubr
            100 -170 -116 41 callgsubr
            return
          </CharString>
          <CharString index="261">
            -47 -25 -17 -30 -4 hvcurveto
            182 callsubr
            93 -45 34 -86 vhcurveto
            return
          </CharString>
          <CharString index="262">
            363 rmoveto
            -70 hlineto
            -72 callgsubr
            70 hlineto
            -234 303 callsubr
            return
          </CharString>
          <CharString index="263">
            215 rmoveto
            -77 callgsubr
            return
          </CharString>
          <CharString index="264">
            225 callsubr
            92 -82 callsubr
            return
          </CharString>
          <CharString index="265">
            vlineto
            127 callsubr
            return
          </CharString>
          <CharString index="266">
            rmoveto
            -103 callgsubr
            return
          </CharString>
          <CharString index="267">
            -109 -31 -44 -73 hvcurveto
            return
          </CharString>
          <CharString index="268">
            34 -12 -29 20 -47 353 callsubr
            -251 89 callsubr
            167 return
          </CharString>
          <CharString index="269">
            228 hlineto
            -241 -392 rlineto
            -125 417 125 -234 vlineto
            241 392 rlineto
            return
          </CharString>
          <CharString index="270">
            rmoveto
            -768 -113 538 -57 -240 -257 hlineto
            32 callgsubr
            70 72 callsubr
            vlineto
            endchar
          </CharString>
          <CharString index="271">
            -35 callsubr
            213 170 60 113 64 callsubr
            -160 vlineto
            return
          </CharString>
          <CharString index="272">
            -7 vhcurveto
            -95 -148 78 callsubr
            return
          </CharString>
          <CharString index="273">
            -59 vlineto
            191 callsubr
            return
          </CharString>
          <CharString index="274">
            -231 hlineto
            1 -113 rlineto
            return
          </CharString>
          <CharString index="275">
            -19 -72 callsubr
            return
          </CharString>
          <CharString index="276">
            -19 6 -33 -15 callsubr
            86 hlineto
            120 41 34 93 hvcurveto
            154 return
          </CharString>
          <CharString index="277">
            219 callsubr
            18 hlineto
            return
          </CharString>
          <CharString index="278">
            rmoveto
            -92 callgsubr
            33 vlineto
            26 5 5 26 vhcurveto
            37 -64 hlineto
            -90 callgsubr
            return
          </CharString>
          <CharString index="279">
            vlineto
            23 callgsubr
            return
          </CharString>
          <CharString index="280">
            -37 callgsubr
            -357 hlineto
            114 callgsubr
            242 113 -218 -68 callsubr
            return
          </CharString>
          <CharString index="281">
            -114 124 callsubr
          </CharString>
          <CharString index="282">
            34 callsubr
            -109 vlineto
            -77 callsubr
            143 -102 callsubr
            109 158 callgsubr
            return
          </CharString>
          <CharString index="283">
            -12 callgsubr
            -160 vlineto
            338 callgsubr
            61 hlineto
            27 17 5 11 9 hvcurveto
            -64 4 34 -30 102 hhcurveto
            return
          </CharString>
          <CharString index="284">
            -57 -39 -23 -65 hvcurveto
            -20 -5 vlineto
            362 callgsubr
            -165 229 callsubr
            return
          </CharString>
          <CharString index="285">
            rmoveto
            154 hlineto
            211 callgsubr
            -157 hlineto
            -53 -69 -53 69 319 callgsubr
            return
          </CharString>
          <CharString index="286">
            119 -348 -119 166 vlineto
            -179 -261 rlineto
            -119 371 119 return
          </CharString>
          <CharString index="287">
            159 callsubr
            16 -81 callsubr
            -110 -81 callgsubr
            -16 -93 callsubr
            return
          </CharString>
          <CharString index="288">
            -40 callsubr
            vlineto
            return
          </CharString>
          <CharString index="289">
            -5 hlineto
            362 callgsubr
            -116 304 callsubr
            -140 vlineto
            338 callgsubr
            116 hlineto
            47 25 17 30 4 hvcurveto
            5 hlineto
            -30 4 25 -17 47 hhcurveto
            115 362 callsubr
            140 vlineto
            return
          </CharString>
          <CharString index="290">
            vlineto
            -93 41 -34 120 vhcurveto
            86 307 callgsubr
          </CharString>
          <CharString index="291">
            -96 -158 214 callsubr
          </CharString>
          <CharString index="292">
            -97 callgsubr
            hlineto
            endchar
          </CharString>
          <CharString index="293">
            -166 rmoveto
            -72 callgsubr
            81 -166 hlineto
            -245 34 351 callgsubr
            -202 hlineto
            243 callsubr
            274 255 callgsubr
            return
          </CharString>
          <CharString index="294">
            206 callgsubr
            529 60 vlineto
            endchar
          </CharString>
          <CharString index="295">
            rmoveto
            -90 callgsubr
            -85 -100 callgsubr
            80 -89 callsubr
            89 173 callgsubr
            return
          </CharString>
          <CharString index="296">
            128 callsubr
            276 callgsubr
            return
          </CharString>
          <CharString index="297">
            255 callgsubr
            460 147 rmoveto
            return
          </CharString>
          <CharString index="298">
            -88 -8 -31 -36 -81 vvcurveto
            -218 vlineto
            return
          </CharString>
          <CharString index="299">
            -4 -7 -2 -8 -10 vvcurveto
            return
          </CharString>
          <CharString index="300">
            vlineto
            -74 41 -32 89 vhcurveto
            return
          </CharString>
          <CharString index="301">
            vlineto
            -19 6 -33 -15 callsubr
            return
          </CharString>
          <CharString index="302">
            -106 callgsubr
            -238 -105 callsubr
            -59 callgsubr
            return
          </CharString>
          <CharString index="303">
            -44 -6 hlineto
            -89 -41 -29 -67 hvcurveto
            -48 vlineto
            -33 17 -14 30 -3 vhcurveto
            -5 vlineto
            -30 -4 -17 -13 -34 vvcurveto
            -61 vlineto
            -67 41 -29 89 vhcurveto
            173 hlineto
            27 16 5 9 10 hvcurveto
            113 callsubr
          </CharString>
          <CharString index="304">
            rmoveto
            -585 34 callsubr
            -109 vlineto
            return
          </CharString>
          <CharString index="305">
            308 callsubr
            -77 callsubr
            80 -71 -96 hlineto
            50 callgsubr
            68 return
          </CharString>
          <CharString index="306">
            vlineto
            -89 callgsubr
            69 289 callgsubr
            return
          </CharString>
          <CharString index="307">
            vlineto
            0 callgsubr
            176 -85 callgsubr
            return
          </CharString>
          <CharString index="308">
            -104 -104 callsubr
            return
          </CharString>
          <CharString index="309">
            -103 callgsubr
            11 103 return
          </CharString>
          <CharString index="310">
            -6 -9 -3 -11 -15 vvcurveto
            -57 vlineto
            -81 41 -26 74 vhcurveto
            77 hlineto
            27 16 5 11 10 hvcurveto
            -107 120 291 vlineto
            89 6 42 36 84 vvcurveto
            238 vlineto
            71 -35 27 -67 7 vhcurveto
            59 vlineto
            endchar
          </CharString>
          <CharString index="311">
            rmoveto
            -422 -125 123 -517 175 517 124 hlineto
            endchar
          </CharString>
          <CharString index="312">
            rmoveto
            160 105 113 -556 -113 281 -57 -81 vlineto
            54 callsubr
            return
          </CharString>
          <CharString index="313">
            rmoveto
            -780 7 callgsubr
            95 hlineto
            30 17 10 16 9 hvcurveto
            -18 22 31 -8 41 58 callsubr
          </CharString>
          <CharString index="314">
            0 callgsubr
            206 -85 callgsubr
            return
          </CharString>
          <CharString index="315">
            rmoveto
            325 callsubr
            return
          </CharString>
          <CharString index="316">
            -70 callsubr
            -141 hlineto
            return
          </CharString>
          <CharString index="317">
            14 6 7 12 vhcurveto
            21 43 -52 58 hhcurveto
            return
          </CharString>
          <CharString index="318">
            104 callsubr
            358 callsubr
            return
          </CharString>
          <CharString index="319">
            12 callsubr
            305 -89 callsubr
            52 241 callgsubr
            return
          </CharString>
          <CharString index="320">
            -467 235 callgsubr
            122 206 rlineto
            return
          </CharString>
          <CharString index="321">
            rlineto
            185 callgsubr
          </CharString>
          <CharString index="322">
            hlineto
            -107 callgsubr
            return
          </CharString>
          <CharString index="323">
            -13 callgsubr
            518 return
          </CharString>
          <CharString index="324">
            hlineto
            110 51 -28 callsubr
            return
          </CharString>
          <CharString index="325">
            10 507 242 rmoveto
            -68 127 -164 -127 -106 hlineto
            258 400 rlineto
            -176 hlineto
            -241 -372 rlineto
            -155 265 -115 164 115 68 vlineto
            endchar
          </CharString>
          <CharString index="326">
            vlineto
            -75 38 -49 95 vhcurveto
            return
          </CharString>
          <CharString index="327">
            47 callsubr
            -60 -75 callgsubr
            -60 193 callsubr
            293 113 -260 -107 callsubr
            return
          </CharString>
          <CharString index="328">
            9 callsubr
            -67 412 359 callgsubr
            -642 295 vlineto
            107 40 49 75 hvcurveto
            394 -14 callsubr
            endchar
          </CharString>
          <CharString index="329">
            -113 60 189 callgsubr
            return
          </CharString>
          <CharString index="330">
            rmoveto
            157 hlineto
            53 69 53 -69 357 callgsubr
            -133 150 rlineto
            -154 hlineto
            endchar
          </CharString>
          <CharString index="331">
            -89 callgsubr
            152 -82 callsubr
            return
          </CharString>
          <CharString index="332">
            -81 callgsubr
            -39 62 -170 -227 170 62 return
          </CharString>
          <CharString index="333">
            118 callgsubr
            endchar
          </CharString>
          <CharString index="334">
            168 hlineto
            23 16 6 10 10 hvcurveto
            return
          </CharString>
          <CharString index="335">
            148 callsubr
            172 279 callgsubr
            return
          </CharString>
          <CharString index="336">
            88 callgsubr
            113 -60 return
          </CharString>
          <CharString index="337">
            -86 287 702 rmoveto
            -307 -762 rlineto
            144 hlineto
            307 762 rlineto
            endchar
          </CharString>
          <CharString index="338">
            -304 vlineto
            -45 callgsubr
            return
          </CharString>
          <CharString index="339">
            39 callsubr
            170 hlineto
            return
          </CharString>
          <CharString index="340">
            -10 -12 callgsubr
            -75 vlineto
            -89 callgsubr
            240 113 -187 -93 callsubr
            33 -85 callgsubr
            endchar
          </CharString>
          <CharString index="341">
            245 callsubr
            324 return
          </CharString>
          <CharString index="342">
            -64 callgsubr
            478 323 rmoveto
            return
          </CharString>
          <CharString index="343">
            -113 298 return
          </CharString>
          <CharString index="344">
            -304 -91 callsubr
            return
          </CharString>
          <CharString index="345">
            vlineto
            -96 callsubr
            return
          </CharString>
          <CharString index="346">
            225 rmoveto
            -45 callgsubr
            -149 -100 callgsubr
            64 -5 callsubr
            82 hlineto
            return
          </CharString>
          <CharString index="347">
            rmoveto
            125 -63 98 -170 -98 -55 -125 55 -250 -29 callsubr
            85 125 -37 -55 callgsubr
            227 vlineto
            endchar
          </CharString>
          <CharString index="348">
            472 208 callsubr
            return
          </CharString>
          <CharString index="349">
            196 634 -196 hlineto
            236 -185 rmoveto
            196 185 -196 hlineto
            return
          </CharString>
          <CharString index="350">
            -42 callgsubr
            103 return
          </CharString>
          <CharString index="351">
            124 callgsubr
            266 callgsubr
            return
          </CharString>
          <CharString index="352">
            280 callgsubr
            86 hlineto
            120 41 34 93 hvcurveto
            return
          </CharString>
          <CharString index="353">
            rmoveto
            517 -175 -642 374 125 vlineto
            endchar
          </CharString>
          <CharString index="354">
            4 callgsubr
            118 114 -48 hlineto
            -26 -5 5 26 hvcurveto
            9 vlineto
            26 5 5 26 vhcurveto
            26 hlineto
            21 12 -4 -18 11 hvcurveto
            103 -163 rlineto
            return
          </CharString>
          <CharString index="355">
            331 callsubr
            114 vlineto
            202 callsubr
            -42 callsubr
            return
          </CharString>
          <CharString index="356">
            hlineto
            -141 201 rlineto
            -203 hlineto
            58 -75 39 -50 36 -40 45 -36 rlinecurve
            return
          </CharString>
          <CharString index="357">
            354 callgsubr
            40 -51 37 -41 47 -37 rlinecurve
            164 hlineto
            return
          </CharString>
          <CharString index="358">
            -97 35 callgsubr
            return
          </CharString>
          <CharString index="359">
            0 vhcurveto
            0 -45 53 -34 43 vhcurveto
            return
          </CharString>
          <CharString index="360">
            43 vlineto
            126 54 32 83 hvcurveto
            return
          </CharString>
          <CharString index="361">
            147 9 callsubr
            return
          </CharString>
          <CharString index="362">
            -150 rlineto
            134 return
          </CharString>
          <CharString index="363">
            -150 372 callgsubr
            -42 15 callsubr
          </CharString>
          <CharString index="364">
            hhcurveto
            18 hlineto
            95 38 49 75 hvcurveto
            251 vlineto
            75 -38 49 -95 vhcurveto
            endchar
          </CharString>
          <CharString index="365">
            -245 40 164 rmoveto
            -313 52 vlineto
            120 223 rlineto
            90 vlineto
            return
          </CharString>
          <CharString index="366">
            -8 5 15 hvcurveto
            return
          </CharString>
          <CharString index="367">
            -33 267 callgsubr
          </CharString>
          <CharString index="368">
            -218 -105 callsubr
            147 callsubr
            vlineto
            endchar
          </CharString>
          <CharString index="369">
            458 642 rmoveto
            -478 -113 478 hlineto
            return
          </CharString>
          <CharString index="370">
            vlineto
            168 callgsubr
            return
          </CharString>
          <CharString index="371">
            -85 callgsubr
            45 hlineto
            460 283 rmoveto
            -748 -113 518 290 callsubr
            return
          </CharString>
          <CharString index="372">
            291 callsubr
            128 callgsubr
            -47 -75 callgsubr
            return
          </CharString>
          <CharString index="373">
            -33 rmoveto
            365 callgsubr
            288 hlineto
            44 22 24 41 vhcurveto
            57 148 -15 hlineto
            -59 -38 -32 -50 -11 hvcurveto
            endchar
          </CharString>
          <CharString index="374">
            rmoveto
            -64 vlineto
            295 callgsubr
            return
          </CharString>
          <CharString index="375">
            529 rmoveto
            113 return
          </CharString>
          <CharString index="376">
            rmoveto
            -343 vlineto
            -143 343 rlineto
            -150 -642 160 337 hlineto
            143 -337 rlineto
            150 642 hlineto
            return
          </CharString>
          <CharString index="377">
            -75 417 642 rmoveto
            -407 -135 220 hlineto
            -189 -507 rlineto
            181 hlineto
            195 547 rlineto
            endchar
          </CharString>
          <CharString index="378">
            hlineto
            27 16 5 11 -79 callsubr
          </CharString>
          <CharString index="379">
            rmoveto
            -106 101 106 vlineto
            endchar
          </CharString>
          <CharString index="380">
            -60 -113 60 -40 callsubr
            return
          </CharString>
          <CharString index="381">
            13 callsubr
            -230 return
          </CharString>
          <CharString index="382">
            107 vhcurveto
            61 -58 callsubr
            return
          </CharString>
          <CharString index="383">
            114 38 34 65 hvcurveto
            93 return
          </CharString>
          <CharString index="384">
            12 2 3 9 hvcurveto
            return
          </CharString>
          <CharString index="385">
            208 158 rmoveto
            81 callgsubr
            -40 -113 24 20 callsubr
            -295 152 67 return
          </CharString>
          <CharString index="386">
            -21 -11 -5 -17 vhcurveto
            -86 hlineto
            -17 -11 5 21 hvcurveto
            64 vlineto
            21 11 5 17 vhcurveto
            86 hlineto
            17 11 -5 -21 hvcurveto
            return
          </CharString>
          <CharString index="387">
            320 callsubr
            94 -85 callgsubr
            45 hlineto
            return
          </CharString>
          <CharString index="388">
            -103 callsubr
            114 138 113 -138 97 vlineto
            endchar
          </CharString>
          <CharString index="389">
            254 callgsubr
            -60 219 callgsubr
            return
          </CharString>
          <CharString index="390">
            vvcurveto
            -100 -16 callgsubr
          </CharString>
          <CharString index="391">
            170 callsubr
            47 29 20 34 12 hvcurveto
            return
          </CharString>
          <CharString index="392">
            -23 494 250 callgsubr
            -160 vlineto
            return
          </CharString>
          <CharString index="393">
            299 callsubr
            111 return
          </CharString>
          <CharString index="394">
            vlineto
            338 callgsubr
            170 hlineto
            15 277 callsubr
            -83 -97 callsubr
          </CharString>
          <CharString index="395">
            -113 492 hlineto
            -60 callsubr
            return
          </CharString>
          <CharString index="396" raw="1">
            361db806 fc760b  
          </CharString>
          <CharString index="397">
            -57 -328 -12 callgsubr
            return
          </CharString>
          <CharString index="398">
            -113 281 -57 -81 return
          </CharString>
          <CharString index="399" raw="1">
            9a1ff702 0b  
          </CharString>
          <CharString index="400">
            -106 callgsubr
            -160 331 callgsubr
            return
          </CharString>
          <CharString index="401">
            -130 -231 rlineto
            195 hlineto
            102 181 rlineto
            20 -181 185 callsubr
          </CharString>
          <CharString index="402">
            363 callgsubr
            hlineto
            110 callsubr
            return
          </CharString>
          <CharString index="403">
            -72 vlineto
            -77 callsubr
            return
          </CharString>
          <CharString index="404">
            14 callgsubr
            52 return
          </CharString>
          <CharString index="405">
            472 rmoveto
            308 callgsubr
            return
          </CharString>
          <CharString index="406">
            -106 callsubr
            44 -5 callsubr
            return
          </CharString>
          <CharString index="407">
            439 300 rmoveto
            57 346 callsubr
            -57 vlineto
            return
          </CharString>
          <CharString index="408">
            hlineto
            184 callsubr
          </CharString>
          <CharString index="409">
            -17 -6 vlineto
            316 callgsubr
          </CharString>
          <CharString index="410">
            -132 rmoveto
            -57 callgsubr
            return
          </CharString>
          <CharString index="411">
            hlineto
            -86 -45 -34 -93 hvcurveto
            return
          </CharString>
          <CharString index="412">
            369 rmoveto
            160 return
          </CharString>
          <CharString index="413">
            -57 308 callgsubr
            return
          </CharString>
          <CharString index="414">
            hlineto
            15 8 -5 return
          </CharString>
          <CharString index="415">
            364 callsubr
            179 166 callsubr
            return
          </CharString>
          <CharString index="416">
            rmoveto
            -110 151 rlineto
            -159 hlineto
            107 -151 -107 -153 rlineto
            159 hlineto
            return
          </CharString>
          <CharString index="417">
            hlineto
            -31 59 rlineto
            58 -31 -17 19 -86 hhcurveto
            -96 37 hlineto
            10 -2 8 -4 7 vhcurveto
            return
          </CharString>
          <CharString index="418">
            vlineto
            32 callsubr
            122 206 rlineto
            return
          </CharString>
          <CharString index="419">
            -85 callgsubr
            50 return
          </CharString>
          <CharString index="420">
            170 291 -170 -56 return
          </CharString>
          <CharString index="421">
            160 83 113 return
          </CharString>
          <CharString index="422">
            209 callgsubr
            68 return
          </CharString>
          <CharString index="423">
            vhcurveto
            29 173 callgsubr
            return
          </CharString>
          <CharString index="424">
            -98 callgsubr
            244 return
          </CharString>
          <CharString index="425">
            rmoveto
            -162 -130 162 hlineto
            return
          </CharString>
          <CharString index="426">
            113 hlineto
            endchar
          </CharString>
          <CharString index="427">
            278 215 -104 callsubr
            return
          </CharString>
          <CharString index="428">
            -93 callsubr
            40 -162 -56 vlineto
            -73 26 -44 -12 callsubr
            return
          </CharString>
          <CharString index="429">
            119 561 rmoveto
            8 4 4 10 vhcurveto
            11 hlineto
            9 4 -4 -8 hvcurveto
            return
          </CharString>
          <CharString index="430" raw="1">
            231df710 0b  
          </CharString>
          <CharString index="431">
            hlineto
            -97 -150 rlineto
            return
          </CharString>
          <CharString index="432">
            -96 hlineto
            -70 callsubr
            return
          </CharString>
          <CharString index="433">
            353 -2 rmoveto
            -106 111 rlineto
            67 hlineto
            17 11 1 3 11 hvcurveto
            return
          </CharString>
          <CharString index="434">
            843 rmoveto
            152 -98 71 -46 40 -25 70 -35 rlinecurve
            172 return
          </CharString>
          <CharString index="435">
            -144 -104 callsubr
            return
          </CharString>
          <CharString index="436">
            hlineto
            4 7 2 8 10 vvcurveto
            87 vlineto
            10 -2 8 -4 7 vhcurveto
            return
          </CharString>
          <CharString index="437">
            96 callgsubr
            -33 -125 81 -13 callgsubr
            return
          </CharString>
          <CharString index="438">
            235 -51 callgsubr
            return
          </CharString>
          <CharString index="439">
            296 callgsubr
            endchar
          </CharString>
          <CharString index="440">
            -252 vlineto
            -89 callgsubr
            return
          </CharString>
          <CharString index="441">
            669 -170 -669 vlineto
            return
          </CharString>
          <CharString index="442">
            -107 callsubr
            100 return
          </CharString>
          <CharString index="443">
            vlineto
            -42 callgsubr
            return
          </CharString>
          <CharString index="444">
            -113 179 -59 return
          </CharString>
          <CharString index="445">
            rmoveto
            325 callgsubr
            return
          </CharString>
          <CharString index="446">
            hlineto
            31 17 10 return
          </CharString>
          <CharString index="447">
            -29 callsubr
            134 -13 callgsubr
            return
          </CharString>
          <CharString index="448" raw="1">
            250af702 d5fb0207 2e0b 
          </CharString>
          <CharString index="449">
            rmoveto
            -340 -326 rlineto
            163 hlineto
            177 175 rlineto
            return
          </CharString>
          <CharString index="450">
            vlineto
            -89 callgsubr
            93 -81 callsubr
            return
          </CharString>
          <CharString index="451">
            89 hlineto
            229 113 rmoveto
            -772 -113 284 return
          </CharString>
          <CharString index="452">
            rmoveto
            -17 callsubr
            18 20 callsubr
            return
          </CharString>
          <CharString index="453">
            -41 callsubr
            36 -58 callsubr
            return
          </CharString>
          <CharString index="454">
            -81 callgsubr
            -52 110 callgsubr
            return
          </CharString>
          <CharString index="455">
            rmoveto
            483 125 -483 hlineto
            return
          </CharString>
          <CharString index="456">
            137 9 callsubr
            return
          </CharString>
          <CharString index="457">
            vlineto
            -127 -223 rlineto
            -90 vlineto
            return
          </CharString>
          <CharString index="458">
            rmoveto
            -170 -706 170 hlineto
            return
          </CharString>
          <CharString index="459">
            rmoveto
            -122 -129 122 hlineto
            return
          </CharString>
          <CharString index="460">
            hhcurveto
            -18 hlineto
            -95 -38 -49 -75 hvcurveto
            return
          </CharString>
          <CharString index="461">
            hvcurveto
            -47 -81 callgsubr
            return
          </CharString>
          <CharString index="462">
            194 rmoveto
            113 return
          </CharString>
          <CharString index="463">
            113 -510 return
          </CharString>
          <CharString index="464">
            7 -1 7 vhcurveto
            return
          </CharString>
          <CharString index="465">
            272 113 -248 hlineto
            -25 -9 8 26 hvcurveto
            return
          </CharString>
          <CharString index="466">
            rmoveto
            113 -606 236 callsubr
            -97 -98 vlineto
            return
          </CharString>
          <CharString index="467">
            rmoveto
            111 hlineto
            211 callgsubr
            -147 hlineto
            return
          </CharString>
          <CharString index="468">
            -138 rlineto
            179 hlineto
            return
          </CharString>
          <CharString index="469">
            hlineto
            86 45 -28 callsubr
            return
          </CharString>
          <CharString index="470" raw="1">
            f7611dfb ce0b  
          </CharString>
          <CharString index="471">
            113 379 callsubr
            return
          </CharString>
          <CharString index="472">
            vlineto
            -15 -8 -5 -9 vhcurveto
            return
          </CharString>
          <CharString index="473">
            499 vlineto
            endchar
          </CharString>
          <CharString index="474">
            -338 128 callsubr
            314 75 return
          </CharString>
          <CharString index="475">
            -107 callsubr
            314 vlineto
            endchar
          </CharString>
          <CharString index="476">
            vlineto
            88 -37 35 -106 4 vhcurveto
            return
          </CharString>
          <CharString index="477">
            hlineto
            193 callgsubr
            return
          </CharString>
          <CharString index="478">
            356 callgsubr
            -97 -98 hlineto
            return
          </CharString>
          <CharString index="479">
            263 callsubr
            30 return
          </CharString>
          <CharString index="480">
            rmoveto
            -73 66 73 vlineto
            return
          </CharString>
          <CharString index="481">
            529 rmoveto
            109 return
          </CharString>
          <CharString index="482">
            -113 249 return
          </CharString>
          <CharString index="483">
            rlineto
            82 370 rmoveto
            -90 callgsubr
            return
          </CharString>
          <CharString index="484">
            210 770 rmoveto
            30 6 6 30 vhcurveto
            return
          </CharString>
          <CharString index="485">
            rmoveto
            176 120 -176 hlineto
            endchar
          </CharString>
          <CharString index="486">
            -528 -113 return
          </CharString>
        <CharString name=".notdef">
          13 0 vmoveto
          502 701 -502 hlineto
          51 -49 rmoveto
          400 -603 -400 hlineto
          200 253 rmoveto
          105 -209 rlineto
          60 hlineto
          -135 254 135 261 rlineto
          -60 hlineto
          -100 -206 rlineto
          -4 hlineto
          -105 206 rlineto
          -60 hlineto
          134 -255 -134 -260 rlineto
          60 hlineto
          100 209 rlineto
          endchar
        </CharString>
        <CharString name="A">
          46 220 220 -25 callsubr
        </CharString>
        <CharString name="AE">
          273 259 235 rmoveto
          110 296 rlineto
          -296 vlineto
          165 -110 rmoveto
          136 181 125 -181 131 210 125 -489 vlineto
          -255 -642 rlineto
          172 hlineto
          43 115 rlineto
          154 -115 384 125 hlineto
          endchar
        </CharString>
        <CharString name="Aacute">
          46 474 825 51 callgsubr
          -121 -455 -25 callsubr
        </CharString>
        <CharString name="Abreve">
          46 321 675 rmoveto
          107 40 49 75 hvcurveto
          26 -150 108 callsubr
          -1 -455 -25 callsubr
        </CharString>
        <CharString name="Acircumflex">
          46 271 744 48 callgsubr
          2 -455 -25 callsubr
        </CharString>
        <CharString name="Adieresis">
          46 467 805 66 callgsubr
          -7 -455 -25 callsubr
        </CharString>
        <CharString name="Agrave">
          46 331 675 132 callsubr
          23 -455 -25 callsubr
        </CharString>
        <CharString name="Amacron">
          46 466 781 259 callgsubr
          -246 -455 -25 callsubr
        </CharString>
        <CharString name="Aogonek">
          46 220 220 rmoveto
          51 231 49 -231 rlineto
          152 -397 rmoveto
          116 callsubr
          129 -6 hlineto
          -161 627 rlineto
          -213 hlineto
          -165 -642 rlineto
          172 hlineto
          21 96 rlineto
          154 hlineto
          20 -96 rlineto
          87 -17 -6 hlineto
          316 callgsubr
        </CharString>
        <CharString name="Aring">
          46 233 778 34 callgsubr
          -9 -454 -25 callsubr
        </CharString>
        <CharString name="Atilde">
          46 198 706 rmoveto
          210 callsubr
          21 callsubr
          vlineto
          22 -455 -25 callsubr
        </CharString>
        <CharString name="B">
          19 40 642 rmoveto
          -642 294 vlineto
          107 40 49 75 hvcurveto
          96 vlineto
          51 -9 35 -39 17 vhcurveto
          39 21 9 40 52 vvcurveto
          82 -14 callsubr
          -25 -505 9 callsubr
          -72 149 72 -58 callsubr
          159 vmoveto
          96 callgsubr
          -72 148 72 -58 callsubr
          endchar
        </CharString>
        <CharString name="C">
          -2 470 402 10 callgsubr
        </CharString>
        <CharString name="CR">
          -497 endchar
        </CharString>
        <CharString name="Cacute">
          -2 450 825 51 callgsubr
          153 -273 10 callgsubr
        </CharString>
        <CharString name="Ccaron">
          -2 327 675 2 callgsubr
          297 -273 10 callgsubr
        </CharString>
        <CharString name="Ccedilla">
          -2 170 -123 9 callsubr
          -53 -115 91 -13 callgsubr
          90 -160 vlineto
          300 448 10 callgsubr
        </CharString>
        <CharString name="D">
          32 317 137 221 callsubr
        </CharString>
        <CharString name="Dcaron">
          32 337 675 2 callgsubr
          134 -538 221 callsubr
        </CharString>
        <CharString name="Dcroat">
          40 317 254 callsubr
          -67 144 55 115 -55 133 67 -58 callsubr
          -267 147 rmoveto
          -258 -55 -115 55 -269 295 vlineto
          107 40 49 75 hvcurveto
          394 -14 callsubr
          endchar
        </CharString>
        <CharString name="E">
          -48 215 125 rmoveto
          136 65 callsubr
          vlineto
          endchar
        </CharString>
        <CharString name="Eacute">
          -48 432 825 51 callgsubr
          -84 -550 rmoveto
          136 65 callsubr
          vlineto
          endchar
        </CharString>
        <CharString name="Ecaron">
          -48 316 675 2 callgsubr
          53 -414 rmoveto
          65 callsubr
          -219 hlineto
          endchar
        </CharString>
        <CharString name="Ecircumflex">
          -48 236 744 48 callgsubr
          32 -414 rmoveto
          65 callsubr
          -219 hlineto
          endchar
        </CharString>
        <CharString name="Edieresis">
          3 430 805 66 callgsubr
          25 -550 rmoveto
          136 65 callsubr
          vlineto
          endchar
        </CharString>
        <CharString name="Edotaccent">
          -48 320 805 318 callsubr
          -105 -550 rmoveto
          136 65 callsubr
          vlineto
          endchar
        </CharString>
        <CharString name="Egrave">
          -48 302 675 132 callsubr
          47 -550 rmoveto
          136 65 callsubr
          vlineto
          endchar
        </CharString>
        <CharString name="Emacron">
          -48 425 781 259 callgsubr
          -210 -550 rmoveto
          136 65 callsubr
          vlineto
          endchar
        </CharString>
        <CharString name="Eogonek">
          -48 362 -177 rmoveto
          116 callsubr
          129 -1 110 -219 136 181 125 -181 131 210 125 -385 -642 304 -17 -6 hlineto
          316 callgsubr
        </CharString>
        <CharString name="Eth">
          30 317 349 callsubr
          -67 154 55 115 -55 143 359 callgsubr
          -258 -55 -115 55 -269 295 vlineto
          107 40 49 75 hvcurveto
          394 -14 callsubr
          endchar
        </CharString>
        <CharString name="Euro">
          19 491 402 rmoveto
          116 -14 callsubr
          -141 141 callgsubr
          -85 -41 -96 41 -32 -41 -96 41 -85 -29 callsubr
          141 -13 callgsubr
          112 -175 -99 149 callgsubr
          -35 -55 callgsubr
          72 59 96 -59 32 59 96 -59 72 -41 callsubr
          35 -58 callsubr
          -103 vlineto
          endchar
        </CharString>
        <CharString name="F">
          -57 425 517 rmoveto
          125 -385 325 callgsubr
          246 182 115 -182 156 vlineto
          endchar
        </CharString>
        <CharString name="G">
          4 471 422 55 callsubr
        </CharString>
        <CharString name="Gbreve">
          4 303 675 rmoveto
          107 40 49 75 hvcurveto
          26 -150 108 callsubr
          268 -253 55 callsubr
        </CharString>
        <CharString name="H">
          53 338 642 rmoveto
          -263 -126 263 -172 -642 172 254 126 -254 172 642 vlineto
          endchar
        </CharString>
        <CharString name="I">
          181 callgsubr
          endchar
        </CharString>
        <CharString name="Iacute">
          181 callgsubr
          -159 33 147 callgsubr
          endchar
        </CharString>
        <CharString name="Icircumflex">
          181 callgsubr
          -298 33 223 callsubr
        </CharString>
        <CharString name="Idieresis">
          -242 -68 675 179 callgsubr
          -132 -163 338 callsubr
          642 vlineto
          endchar
        </CharString>
        <CharString name="Idotaccent">
          181 callgsubr
          -168 33 379 callgsubr
        </CharString>
        <CharString name="Igrave">
          181 callgsubr
          -118 183 288 callgsubr
        </CharString>
        <CharString name="Imacron">
          181 callgsubr
          -281 33 344 callgsubr
        </CharString>
        <CharString name="Iogonek">
          -242 142 -177 rmoveto
          116 callsubr
          756 -175 -642 84 -17 -6 hlineto
          316 callgsubr
        </CharString>
        <CharString name="J">
          -40 10 257 rmoveto
          -133 -29 callsubr
          117 216 callsubr
          -175 -495 149 callgsubr
          -11 -55 callgsubr
          110 vlineto
          endchar
        </CharString>
        <CharString name="K">
          33 40 hmoveto
          175 642 -175 hlineto
          358 -314 rmoveto
          320 callgsubr
          188 hlineto
          endchar
        </CharString>
        <CharString name="L">
          -83 215 125 246 callsubr
        </CharString>
        <CharString name="Lacute">
          -83 332 825 51 callgsubr
          16 -550 246 callsubr
        </CharString>
        <CharString name="Lcaron">
          -83 204 675 2 callgsubr
          165 -550 246 callsubr
        </CharString>
        <CharString name="Lslash">
          -63 225 125 rmoveto
          196 vlineto
          110 53 rlineto
          115 vlineto
          -110 -53 rlineto
          206 -175 -290 vlineto
          -89 -43 rlineto
          -115 vlineto
          89 43 rlineto
          -237 374 125 vlineto
          endchar
        </CharString>
        <CharString name="M">
          173 395 139 rmoveto
          80 269 rlineto
          -408 155 642 -191 vlineto
          -104 -343 -104 343 rlineto
          -191 -642 156 406 hlineto
          79 -267 rlineto
          endchar
        </CharString>
        <CharString name="N">
          156 callgsubr
          endchar
        </CharString>
        <CharString name="NULL">
          -497 endchar
        </CharString>
        <CharString name="Nacute">
          36 188 675 147 callgsubr
          48 -183 261 callgsubr
        </CharString>
        <CharString name="Ncaron">
          36 187 674 178 callsubr
          279 -182 261 callgsubr
        </CharString>
        <CharString name="Ntilde">
          156 callgsubr
          -146 33 rmoveto
          21 callsubr
          31 vlineto
          210 callsubr
          endchar
        </CharString>
        <CharString name="O">
          19 304 147 -54 callsubr
        </CharString>
        <CharString name="OE">
          243 332 349 callsubr
          -42 119 callsubr
          42 -58 callsubr
          155 -390 rmoveto
          151 181 115 -181 146 210 115 -335 -20 vlineto
          13 -18 -23 7 -31 hhcurveto
          -78 hlineto
          3 callgsubr
          78 hlineto
          31 23 7 13 18 hvcurveto
          -20 344 115 vlineto
          endchar
        </CharString>
        <CharString name="Oacute">
          19 462 825 51 callgsubr
          -25 -528 -54 callsubr
        </CharString>
        <CharString name="Ocircumflex">
          19 256 744 48 callgsubr
          101 -528 -54 callsubr
        </CharString>
        <CharString name="Odieresis">
          3 454 805 66 callgsubr
          90 -528 -54 callsubr
        </CharString>
        <CharString name="Ograve">
          19 322 675 132 callsubr
          116 -528 -54 callsubr
        </CharString>
        <CharString name="Ohungarumlaut">
          3 410 674 127 callgsubr
          84 -527 -54 callsubr
        </CharString>
        <CharString name="Omacron">
          19 452 781 259 callgsubr
          -148 -528 -54 callsubr
        </CharString>
        <CharString name="Oslash">
          19 314 349 callsubr
          -62 -55 callgsubr
          15 vlineto
          112 197 rlineto
          -112 156 rmoveto
          15 8 7 17 vhcurveto
          62 -58 callsubr
          -26 vlineto
          -112 -197 rlineto
          290 380 rmoveto
          -74 hlineto
          -17 -29 rlineto
          6 -19 -23 3 -27 hhcurveto
          -148 141 callgsubr
          -394 vlineto
          -34 8 -29 19 -21 vhcurveto
          -34 -60 rlineto
          74 hlineto
          16 28 rlineto
          -5 18 21 -3 25 hhcurveto
          148 -13 callgsubr
          394 vlineto
          32 -7 27 -17 21 vhcurveto
          endchar
        </CharString>
        <CharString name="Otilde">
          19 194 706 rmoveto
          210 callsubr
          21 callsubr
          vlineto
          110 -528 -54 callsubr
        </CharString>
        <CharString name="P">
          7 309 357 9 callsubr
          -69 182 69 -58 callsubr
          -269 147 338 callsubr
          210 122 vlineto
          107 40 49 75 hvcurveto
          184 -14 callsubr
          endchar
        </CharString>
        <CharString name="Q">
          19 212 495 rmoveto
          15 8 7 17 vhcurveto
          42 -58 callsubr
          -348 149 callgsubr
          -42 -55 callgsubr
          323 -215 rmoveto
          -93 99 rlineto
          26 22 11 32 39 vvcurveto
          394 -14 callsubr
          -148 hlineto
          3 callgsubr
          89 hlineto
          63 -68 rlineto
          endchar
        </CharString>
        <CharString name="R">
          17 284 517 80 callgsubr
        </CharString>
        <CharString name="Racute">
          17 443 824 51 callgsubr
          -26 -157 80 callgsubr
        </CharString>
        <CharString name="Rcaron">
          17 331 674 2 callgsubr
          107 -157 80 callgsubr
        </CharString>
        <CharString name="S">
          -6 286 147 94 callsubr
        </CharString>
        <CharString name="Sacute">
          -6 193 675 147 callgsubr
          -4 92 callsubr
        </CharString>
        <CharString name="Scaron">
          -6 168 675 178 callsubr
          251 92 callsubr
        </CharString>
        <CharString name="T">
          -65 427 642 204 callsubr
        </CharString>
        <CharString name="Tcaron">
          -65 290 675 2 callgsubr
          291 -33 204 callsubr
        </CharString>
        <CharString name="Thorn">
          37 304 257 9 callsubr
          -59 171 59 -58 callsubr
          -84 142 rmoveto
          116 -175 325 callgsubr
          115 112 vlineto
          107 40 49 75 hvcurveto
          163 -14 callsubr
          endchar
        </CharString>
        <CharString name="U">
          25 307 642 -2 callsubr
        </CharString>
        <CharString name="Uacute">
          25 453 825 51 callgsubr
          -13 -33 -2 callsubr
        </CharString>
        <CharString name="Ucircumflex">
          25 261 744 48 callgsubr
          99 -33 -2 callsubr
        </CharString>
        <CharString name="Udieresis">
          25 456 805 66 callgsubr
          91 -33 -2 callsubr
        </CharString>
        <CharString name="Ugrave">
          25 326 675 132 callsubr
          115 -33 -2 callsubr
        </CharString>
        <CharString name="Uhungarumlaut">
          3 402 675 127 callgsubr
          95 -528 9 callsubr
          -42 -55 callgsubr
          495 -175 -518 -29 callsubr
          148 216 callsubr
          -175 vlineto
          endchar
        </CharString>
        <CharString name="Umacron">
          25 456 781 259 callgsubr
          -149 -33 -2 callsubr
        </CharString>
        <CharString name="Uogonek">
          25 307 642 rmoveto
          -495 149 callgsubr
          -42 -55 callgsubr
          495 -175 -518 -29 callsubr
          39 -17 -6 hlineto
          90 callgsubr
          -91 hlineto
          116 callsubr
          114 18 216 callsubr
          vlineto
          endchar
        </CharString>
        <CharString name="Uring">
          25 222 778 34 callgsubr
          89 -32 -2 callsubr
        </CharString>
        <CharString name="V">
          36 344 642 rmoveto
          -78 -429 -77 429 rlineto
          -182 hlineto
          158 -642 rlineto
          203 hlineto
          158 642 rlineto
          endchar
        </CharString>
        <CharString name="W">
          339 653 642 rmoveto
          -64 -432 -86 432 rlineto
          -171 hlineto
          -86 -432 -54 432 rlineto
          -182 hlineto
          136 -642 rlineto
          201 hlineto
          71 383 71 -383 rlineto
          201 hlineto
          136 642 rlineto
          endchar
        </CharString>
        <CharString name="X">
          24 354 326 rmoveto
          143 316 rlineto
          -188 hlineto
          -54 -164 -53 164 rlineto
          -198 hlineto
          153 -316 -157 -326 rlineto
          186 hlineto
          69 180 69 -180 rlineto
          197 hlineto
          endchar
        </CharString>
        <CharString name="Y">
          22 519 642 184 callgsubr
        </CharString>
        <CharString name="Yacute">
          22 453 825 51 callgsubr
          199 -33 184 callgsubr
        </CharString>
        <CharString name="Ydieresis">
          3 446 823 66 callgsubr
          313 -51 184 callgsubr
        </CharString>
        <CharString name="Z">
          -33 444 642 267 callgsubr
        </CharString>
        <CharString name="Zacute">
          -33 431 825 51 callgsubr
          146 260 callsubr
        </CharString>
        <CharString name="Zcaron">
          -33 326 675 2 callgsubr
          -139 -158 rmoveto
          162 callsubr
          125 -411 vlineto
          endchar
        </CharString>
        <CharString name="Zdotaccent">
          -33 325 805 318 callsubr
          119 260 callsubr
        </CharString>
        <CharString name="a">
          -18 225 125 -28 callgsubr
          -54 170 366 callsubr
        </CharString>
        <CharString name="aacute">
          -18 443 682 51 callgsubr
          -85 -407 8 callgsubr
          endchar
        </CharString>
        <CharString name="abreve">
          -18 225 125 8 callgsubr
          35 183 rmoveto
          108 callsubr
          100 -13 callgsubr
          26 vlineto
          endchar
        </CharString>
        <CharString name="acircumflex">
          -18 241 601 48 callgsubr
          37 -407 8 callgsubr
          endchar
        </CharString>
        <CharString name="acute">
          3 116 532 147 callgsubr
          endchar
        </CharString>
        <CharString name="adieresis">
          -18 206 672 rmoveto
          -152 -130 152 hlineto
          19 -417 8 callgsubr
          22 173 rmoveto
          -130 375 callgsubr
          vlineto
          endchar
        </CharString>
        <CharString name="ae">
          239 300 callsubr
          -295 -175 291 callgsubr
          27 vlineto
          69 29 rlineto
          -48 263 callsubr
          234 374 rmoveto
          -69 -41 -21 -35 -21 hvcurveto
          35 -19 -47 21 -48 hhcurveto
          -68 hlineto
          -95 -38 -49 -75 hvcurveto
          -66 170 43 251 callgsubr
          -38 vlineto
          -239 -98 rlineto
          -84 219 callsubr
          67 hlineto
          48 47 21 35 19 hvcurveto
          -35 21 41 -21 69 hhcurveto
          63 -13 callgsubr
          43 -165 -25 347 callgsubr
          59 251 174 -14 callsubr
          endchar
        </CharString>
        <CharString name="agrave">
          -18 334 532 132 callsubr
          25 -407 -28 callgsubr
          -54 170 366 callsubr
        </CharString>
        <CharString name="amacron">
          -18 434 661 259 callgsubr
          -209 -430 -28 callgsubr
          -54 170 366 callsubr
        </CharString>
        <CharString name="ampersand">
          128 220 115 291 callgsubr
          42 vlineto
          20 8 9 15 9 vhcurveto
          17 10 108 -112 rlineto
          -107 393 rmoveto
          15 8 7 17 vhcurveto
          23 -58 callsubr
          -61 vlineto
          -26 -16 -9 -34 -19 vhcurveto
          -18 19 -5 9 22 vvcurveto
          426 -479 rmoveto
          -84 90 rlineto
          13 19 6 24 27 vvcurveto
          127 -138 -70 vlineto
          -106 113 16 9 rlineto
          68 41 37 27 79 vvcurveto
          68 vlineto
          75 -37 49 -107 vhcurveto
          -117 141 callgsubr
          -68 vlineto
          -41 19 -26 51 -53 vhcurveto
          4 -5 -16 -9 rlineto
          -70 -39 -24 -26 -69 vvcurveto
          -58 -29 callsubr
          265 hlineto
          11 hlineto
          35 -36 rlineto
          endchar
        </CharString>
        <CharString name="aogonek">
          -18 225 258 callgsubr
          124 -302 326 callgsubr
          -167 -64 hlineto
          77 callgsubr
          79 302 callsubr
        </CharString>
        <CharString name="approxequal">
          66 360 335 rmoveto
          212 callgsubr
          -196 vmoveto
          212 callgsubr
          endchar
        </CharString>
        <CharString name="aring">
          -18 201 634 34 callgsubr
          28 -405 -28 callgsubr
          -54 170 366 callsubr
        </CharString>
        <CharString name="asciicircum">
          207 214 669 rmoveto
          -122 -389 rlineto
          177 hlineto
          61 245 61 -245 rlineto
          177 hlineto
          -122 389 rlineto
          endchar
        </CharString>
        <CharString name="asciitilde">
          222 441 204 rmoveto
          67 hlineto
          80 31 31 69 hvcurveto
          85 -155 -45 vlineto
          -23 -5 -9 -23 vhcurveto
          -36 -38 77 -88 hhcurveto
          -67 hlineto
          -80 -31 -31 -69 hvcurveto
          -85 155 45 vlineto
          23 5 9 23 vhcurveto
          49 41 -77 72 hhcurveto
          endchar
        </CharString>
        <CharString name="asterisk">
          -107 373 469 rmoveto
          -38 118 -16 -5 -30 -9 -23 -13 -19 -12 rlinecurve
          7 21 4 26 30 vvcurveto
          17 -125 -16 vlineto
          -31 5 -27 6 -21 vhcurveto
          -18 12 -24 13 -29 9 -16 5 rcurveline
          -39 -118 15 -5 30 -10 27 -4 22 -1 rlinecurve
          -17 -13 -19 -18 -18 -25 -11 -15 rcurveline
          101 -73 10 13 19 26 12 24 7 22 rlinecurve
          8 -21 11 -24 18 -25 11 -14 rcurveline
          101 73 -10 13 -18 25 -19 19 -18 14 rlinecurve
          22 1 26 3 29 10 rrcurveto
          endchar
        </CharString>
        <CharString name="at">
          366 247 324 rmoveto
          -131 vlineto
          -68 35 -45 86 vhcurveto
          16 hlineto
          49 27 23 38 8 hvcurveto
          -61 216 vlineto
          95 38 49 75 hvcurveto
          290 vlineto
          75 -36 49 -95 vhcurveto
          -513 hlineto
          -95 -38 -49 -75 hvcurveto
          -474 219 callsubr
          430 115 -388 -55 callgsubr
          448 -41 callsubr
          431 -58 callsubr
          -275 149 callgsubr
          -44 253 -135 -58 hlineto
          36 -9 -27 22 -47 hhcurveto
          -16 hlineto
          -86 -35 -45 -68 hvcurveto
          146 -12 rmoveto
          14 7 6 15 vhcurveto
          25 hlineto
          16 8 -8 -19 hvcurveto
          -93 vlineto
          -19 -8 -8 -16 vhcurveto
          -25 hlineto
          -15 -7 6 14 hvcurveto
          endchar
        </CharString>
        <CharString name="atilde">
          -18 177 563 rmoveto
          210 callsubr
          21 callsubr
          vlineto
          48 -407 -28 callgsubr
          -54 170 366 callsubr
        </CharString>
        <CharString name="b">
          -18 279 150 callgsubr
          -47 -29 -20 -34 -12 hvcurveto
          224 -170 -669 167 64 vlineto
          -40 9 30 -24 52 257 callsubr
        </CharString>
        <CharString name="backslash">
          -86 -20 702 rmoveto
          307 -762 rlineto
          144 hlineto
          -307 762 rlineto
          endchar
        </CharString>
        <CharString name="bar">
          -231 50 833 rmoveto
          -1026 155 1026 vlineto
          endchar
        </CharString>
        <CharString name="braceleft">
          -171 265 654 rmoveto
          15 8 7 17 vhcurveto
          26 115 -79 hlineto
          -107 -40 -59 -75 hvcurveto
          -200 vlineto
          -57 -18 -25 -49 vhcurveto
          -7 -115 7 hlineto
          49 18 -25 -55 hvcurveto
          -202 vlineto
          -75 40 -59 107 vhcurveto
          79 115 -26 -55 callgsubr
          223 vlineto
          71 -32 40 -46 3 vhcurveto
          42 10 36 33 82 vvcurveto
          endchar
        </CharString>
        <CharString name="braceright">
          -171 61 443 rmoveto
          -82 36 -33 42 -10 vhcurveto
          -46 -3 -32 -40 -71 vvcurveto
          -223 149 callgsubr
          -26 -115 79 hlineto
          107 40 59 75 hvcurveto
          202 vlineto
          55 18 25 49 vhcurveto
          7 115 -7 hlineto
          -49 -18 25 57 hvcurveto
          200 vlineto
          75 -40 59 -107 vhcurveto
          -79 -115 26 -58 callsubr
          endchar
        </CharString>
        <CharString name="bracketleft">
          -180 307 666 rmoveto
          125 -267 -948 267 125 -92 698 vlineto
          endchar
        </CharString>
        <CharString name="bracketright">
          -180 277 791 rmoveto
          -267 -125 92 -698 -92 -125 267 hlineto
          endchar
        </CharString>
        <CharString name="breve">
          3 297 682 rmoveto
          108 callsubr
          100 -13 callgsubr
          26 vlineto
          endchar
        </CharString>
        <CharString name="brokenbar">
          -231 40 262 rmoveto
          -355 175 355 vlineto
          116 vmoveto
          355 -175 -355 vlineto
          endchar
        </CharString>
        <CharString name="bullet">
          -101 50 321 rmoveto
          -81 67 -67 81 81 67 67 81 81 -67 67 -81 -81 -67 -67 -81 vhcurveto
          endchar
        </CharString>
        <CharString name="c">
          -46 431 306 rmoveto
          69 -14 callsubr
          -107 hlineto
          41 callsubr
          vlineto
          endchar
        </CharString>
        <CharString name="cacute">
          -46 433 682 51 callgsubr
          -123 -33 rmoveto
          41 callsubr
          164 69 -14 callsubr
          endchar
        </CharString>
        <CharString name="caron">
          3 173 532 178 callsubr
          endchar
        </CharString>
        <CharString name="ccaron">
          -46 303 532 2 callgsubr
          28 -33 rmoveto
          41 callsubr
          164 69 -14 callsubr
          endchar
        </CharString>
        <CharString name="ccedilla">
          -46 156 -123 9 callsubr
          -53 -115 91 -13 callgsubr
          90 -160 vlineto
          275 352 rmoveto
          69 -14 callsubr
          -107 hlineto
          41 callsubr
          vlineto
          endchar
        </CharString>
        <CharString name="cedilla">
          3 199 -123 9 callsubr
          -53 -115 91 -13 callgsubr
          90 -160 vlineto
          endchar
        </CharString>
        <CharString name="cent">
          -46 431 306 rmoveto
          69 vlineto
          67 -32 47 -84 8 vhcurveto
          82 -165 -81 vlineto
          -87 -8 -33 -47 -68 vvcurveto
          -251 vlineto
          -68 33 -47 87 -8 vhcurveto
          -81 165 82 vlineto
          84 8 32 47 67 vvcurveto
          69 -164 -46 149 callgsubr
          -17 hlineto
          -4 callsubr
          17 8 -7 -15 hvcurveto
          -46 vlineto
          endchar
        </CharString>
        <CharString name="circumflex">
          3 40 532 223 callsubr
        </CharString>
        <CharString name="colon">
          -245 40 335 rmoveto
          217 callgsubr
          -499 vmoveto
          217 callgsubr
          endchar
        </CharString>
        <CharString name="comma">
          258 callsubr
          endchar
        </CharString>
        <CharString name="commaaccent">
          3 166 -46 152 callgsubr
        </CharString>
        <CharString name="copyright">
          275 742 338 rmoveto
          181 -53 123 -205 vhcurveto
          -196 hlineto
          -205 -53 -123 -181 hvcurveto
          -34 vlineto
          -181 53 -123 205 vhcurveto
          196 hlineto
          205 53 123 181 hvcurveto
          -421 -205 rmoveto
          -109 -52 28 159 hvcurveto
          70 vlineto
          159 52 28 -12 callsubr
          130 hlineto
          109 52 -28 -159 hvcurveto
          -70 vlineto
          -159 -52 -28 -109 vhcurveto
          -38 161 rmoveto
          -10 -6 -5 -11 vhcurveto
          -18 hlineto
          -12 -5 5 10 hvcurveto
          123 vlineto
          10 5 5 12 vhcurveto
          18 hlineto
          11 6 -5 -10 hvcurveto
          -33 117 53 vlineto
          51 -28 34 -73 vhcurveto
          -84 hlineto
          -74 -27 -34 -51 hvcurveto
          -163 vlineto
          -51 27 -34 74 vhcurveto
          84 hlineto
          73 28 34 51 hvcurveto
          54 -117 vlineto
          endchar
        </CharString>
        <CharString name="currency">
          98 280 198 rmoveto
          -52 -25 9 67 hvcurveto
          51 vlineto
          67 25 10 52 vhcurveto
          15 hlineto
          51 26 -10 -67 hvcurveto
          -51 vlineto
          -67 -26 -9 -51 vhcurveto
          213 128 rmoveto
          42 -5 37 -14 29 vhcurveto
          51 51 -101 102 -77 -77 rlineto
          1 -11 -12 1 -13 hhcurveto
          -75 hlineto
          -14 -14 -1 -1 -12 hvcurveto
          -78 77 -101 -102 54 -54 rlineto
          -12 -29 -5 -35 -41 vvcurveto
          -52 vlineto
          -34 3 -30 9 -26 vhcurveto
          -49 -49 101 -102 61 61 rlineto
          -3 17 19 -2 21 hhcurveto
          75 hlineto
          19 18 1 3 16 hvcurveto
          60 -60 101 102 -45 45 rlineto
          9 27 4 31 36 vvcurveto
          endchar
        </CharString>
        <CharString name="d">
          -18 244 callgsubr
          544 rmoveto
          -224 vlineto
          161 callsubr
          669 vlineto
          endchar
        </CharString>
        <CharString name="dagger">
          -43 444 490 rmoveto
          341 callgsubr
          -484 175 484 130 hlineto
          endchar
        </CharString>
        <CharString name="daggerdbl">
          -13 459 375 rmoveto
          115 341 callgsubr
          -245 -129 -115 129 -152 175 375 callgsubr
          115 -130 245 vlineto
          endchar
        </CharString>
        <CharString name="dcaron">
          23 244 callgsubr
          320 rmoveto
          161 callsubr
          669 -170 vlineto
          210 hmoveto
          378 callgsubr
          endchar
        </CharString>
        <CharString name="dcroat">
          -13 230 258 callgsubr
          247 497 rmoveto
          -50 47 -170 -47 -60 -75 60 -102 hlineto
          161 callsubr
          547 50 vlineto
          endchar
        </CharString>
        <CharString name="degree">
          -13 444 518 rmoveto
          75 -35 49 -107 vhcurveto
          -120 hlineto
          -107 -35 -49 -75 hvcurveto
          -91 vlineto
          -75 35 -49 107 vhcurveto
          120 hlineto
          107 35 49 75 hvcurveto
          -158 3 9 callsubr
          -38 -55 callgsubr
          85 -41 callsubr
          38 -58 callsubr
          endchar
        </CharString>
        <CharString name="dieresis">
          3 54 542 179 callgsubr
          endchar
        </CharString>
        <CharString name="divide">
          36 25 257 348 callsubr
          160 155 rmoveto
          -115 163 115 vlineto
          -163 -320 rmoveto
          -115 163 115 vlineto
          endchar
        </CharString>
        <CharString name="dollar">
          -6 230 378 291 callgsubr
          95 -41 callsubr
          29 -58 callsubr
          -54 175 77 vlineto
          71 -35 48 -96 5 vhcurveto
          85 -166 -85 vlineto
          -96 -4 -36 -48 -72 vvcurveto
          -132 vlineto
          -75 31 -51 104 vhcurveto
          96 -58 callsubr
          -91 vlineto
          358 callgsubr
          54 -175 -77 vlineto
          -71 36 -48 94 -5 vhcurveto
          -84 166 84 vlineto
          97 4 36 48 72 vvcurveto
          132 vlineto
          75 -33 47 -104 vhcurveto
          endchar
        </CharString>
        <CharString name="dotaccent">
          3 169 542 379 callgsubr
        </CharString>
        <CharString name="dotlessi">
          210 callgsubr
          endchar
        </CharString>
        <CharString name="dvBH_N">
          487 686 -22 callgsubr
          -408 hmoveto
          -107 callgsubr
          72 -85 callgsubr
          45 hlineto
          170 113 rmoveto
          110 vlineto
          -83 callgsubr
          -94 254 callgsubr
          -108 -105 callsubr
          102 68 -102 -79 callgsubr
          80 113 -348 vlineto
          -77 -38 -17 -35 -15 hvcurveto
          -10 222 rmoveto
          -113 488 220 callgsubr
        </CharString>
        <CharString name="dvB_N">
          338 537 -22 callgsubr
          -337 117 rmoveto
          -43 callsubr
          167 59 rmoveto
          169 callsubr
          80 113 -348 128 callgsubr
          -387 339 callgsubr
          875 220 callgsubr
        </CharString>
        <CharString name="dvCH_N">
          204 384 -313 rmoveto
          45 callgsubr
          -130 150 rlineto
          -151 783 -87 callsubr
          -419 113 rmoveto
          8 callsubr
          212 -71 -126 hlineto
          50 callgsubr
          98 -119 120 291 hlineto
          91 5 43 36 85 vvcurveto
          238 vlineto
          71 -35 27 -67 7 vhcurveto
          59 162 220 callgsubr
        </CharString>
        <CharString name="dvC_N">
          293 492 248 callgsubr
          -51 -107 callsubr
          120 vlineto
          10 callsubr
          338 callgsubr
          128 115 callsubr
          90 113 -358 128 callgsubr
          -344 339 callgsubr
          842 220 callgsubr
        </CharString>
        <CharString name="dvDDH_DDHA">
          20 448 359 rmoveto
          170 89 113 -557 236 callsubr
          -57 254 callgsubr
          -248 vlineto
          -45 17 -17 30 -4 vhcurveto
          -5 vlineto
          -30 -4 -17 -18 -38 vvcurveto
          -149 vlineto
          -77 callsubr
          116 -102 callsubr
          32 84 callsubr
          -72 -113 38 20 callsubr
          -12 160 callgsubr
          -48 -100 callgsubr
          175 -85 callgsubr
          84 -102 callsubr
          32 84 callsubr
          -72 -113 38 20 callsubr
          -12 160 callgsubr
          -48 -100 callgsubr
          156 361 callgsubr
        </CharString>
        <CharString name="dvDD_GA">
          -27 407 352 callgsubr
          -510 -113 257 -20 callgsubr
          -52 15 -32 48 -14 vhcurveto
          -70 vlineto
          -10 -5 -4 -11 vhcurveto
          -22 -79 59 hlineto
          77 22 24 51 hvcurveto
          79 49 -194 120 208 vlineto
          37 16 13 30 47 157 callgsubr
          endchar
        </CharString>
        <CharString name="dvDD_N">
          -27 278 -290 rmoveto
          120 314 hlineto
          24 17 8 28 38 157 callgsubr
          180 314 callsubr
          -510 102 callsubr
          -89 callgsubr
          110 -71 -108 hlineto
          50 callgsubr
          80 hlineto
          143 -142 rmoveto
          -166 hlineto
          45 callgsubr
          endchar
        </CharString>
        <CharString name="dvDH_N">
          437 573 339 rmoveto
          15 8 5 15 vhcurveto
          45 -144 hlineto
          -19 -10 -5 -15 vhcurveto
          -18 hlineto
          -15 -10 5 19 hvcurveto
          -170 10 rmoveto
          4 callsubr
          154 153 113 -421 128 callgsubr
          -1 277 rmoveto
          1 -113 rlineto
          561 319 callsubr
        </CharString>
        <CharString name="dvD_N">
          -23 284 -214 rmoveto
          150 505 -150 -76 hlineto
          168 callsubr
          -42 -107 callsubr
          120 vlineto
          19 10 5 15 vhcurveto
          213 170 60 113 178 callgsubr
          hlineto
          159 -148 rmoveto
          -166 hlineto
          45 callgsubr
          endchar
        </CharString>
        <CharString name="dvGH_N">
          293 492 -22 callgsubr
          318 314 rmoveto
          113 -830 -113 66 vlineto
          192 callsubr
          -86 -75 callgsubr
          -96 vlineto
          -48 callsubr
          102 115 callsubr
          80 113 -348 128 callgsubr
          -140 vlineto
          -45 callgsubr
          -55 -107 callsubr
          64 81 callsubr
          113 -33 -107 callsubr
          55 vlineto
          26 8 8 26 vhcurveto
          endchar
        </CharString>
        <CharString name="dvG_N">
          469 668 68 callgsubr
          -10 rmoveto
          -103 callsubr
          154 140 113 -408 128 callgsubr
          -275 -174 -60 callgsubr
          805 451 rmoveto
          -1066 -113 -73 callsubr
          610 vlineto
          endchar
        </CharString>
        <CharString name="dvJH_N">
          441 640 -22 callgsubr
          -246 154 rmoveto
          160 624 113 -1058 85 callsubr
          73 vlineto
          8 -1 357 callsubr
          60 hlineto
          -91 1 41 -33 119 79 callgsubr
          154 140 113 -408 128 callgsubr
          -60 -267 vlineto
          -15 259 callsubr
          24 -85 callgsubr
          endchar
        </CharString>
        <CharString name="dvJ_N">
          530 754 359 rmoveto
          -144 -44 callgsubr
          124 -85 callgsubr
          348 113 rmoveto
          -779 -257 hlineto
          9 callgsubr
          -154 -79 callgsubr
          133 vlineto
          -1077 283 rmoveto
          -113 1077 220 callgsubr
        </CharString>
        <CharString name="dvKH_N">
          738 891 68 callgsubr
          hmoveto
          42 callsubr
          36 22 9 18 12 hvcurveto
          -19 25 40 callgsubr
          154 156 113 -424 128 callgsubr
          -741 339 callgsubr
          249 vlineto
          -80 callgsubr
          858 319 callsubr
        </CharString>
        <CharString name="dvK_N">
          529 748 329 rmoveto
          -114 -44 callgsubr
          94 -85 callgsubr
          373 200 rmoveto
          113 -1096 -113 285 -314 vlineto
          -99 callgsubr
          27 16 5 11 10 hvcurveto
          -94 170 305 -89 callsubr
          52 -124 hlineto
          -103 callsubr
          124 158 113 -588 vlineto
          243 callsubr
          vlineto
          endchar
        </CharString>
        <CharString name="dvM_N">
          507 744 215 102 callgsubr
          756 210 rmoveto
          113 -1044 -113 764 -97 -574 128 callgsubr
          -120 232 callgsubr
          110 113 -110 97 vlineto
          endchar
        </CharString>
        <CharString name="dvMatraI.a33">
          1569 858 rmoveto
          -1407 -101 callsubr
          1239 -82 callgsubr
        </CharString>
        <CharString name="dvMatraI.a34">
          1601 858 rmoveto
          -1439 -101 callsubr
          1271 -82 callgsubr
        </CharString>
        <CharString name="dvMatraI.a35">
          1634 858 rmoveto
          -1472 -101 callsubr
          1304 -82 callgsubr
        </CharString>
        <CharString name="dvMatraI.a36">
          1666 858 rmoveto
          -1504 -101 callsubr
          1336 -82 callgsubr
        </CharString>
        <CharString name="dvMatraI.a37">
          1698 858 rmoveto
          -1536 -101 callsubr
          1368 -82 callgsubr
        </CharString>
        <CharString name="dvMatraI.a38">
          1731 858 rmoveto
          -1569 -101 callsubr
          1401 -82 callgsubr
        </CharString>
        <CharString name="dvMatraI.a39">
          1763 858 rmoveto
          -1601 -101 callsubr
          1433 -82 callgsubr
        </CharString>
        <CharString name="dvMatraI.a40">
          1795 858 rmoveto
          -1633 -101 callsubr
          1465 -82 callgsubr
        </CharString>
        <CharString name="dvMatraI.a41">
          1827 858 rmoveto
          -1665 -101 callsubr
          1497 -82 callgsubr
        </CharString>
        <CharString name="dvMatraI.a42">
          1860 858 rmoveto
          -1698 -101 callsubr
          1530 -82 callgsubr
        </CharString>
        <CharString name="dvMatraI.a43">
          1892 858 rmoveto
          -1730 -101 callsubr
          1562 -82 callgsubr
        </CharString>
        <CharString name="dvMatraI.a44">
          1924 858 rmoveto
          -1762 -101 callsubr
          1594 -82 callgsubr
        </CharString>
        <CharString name="dvMatraI.a45">
          1957 858 rmoveto
          -1795 -101 callsubr
          1627 -82 callgsubr
        </CharString>
        <CharString name="dvMatraI.a46">
          1989 858 rmoveto
          -1827 -101 callsubr
          1659 -82 callgsubr
        </CharString>
        <CharString name="dvMatraI.a47">
          2021 858 rmoveto
          -1859 -101 callsubr
          1691 -82 callgsubr
        </CharString>
        <CharString name="dvMatraI.a48">
          2053 858 rmoveto
          -1891 -101 callsubr
          1723 -82 callgsubr
        </CharString>
        <CharString name="dvMatraI.a49">
          2086 858 rmoveto
          -1924 -101 callsubr
          1756 -82 callgsubr
        </CharString>
        <CharString name="dvMatraI.a50">
          2118 858 rmoveto
          -1956 -101 callsubr
          1788 -82 callgsubr
        </CharString>
        <CharString name="dvNG_GA">
          61 434 284 -67 callsubr
          -454 229 rmoveto
          -113 257 -20 callgsubr
          -52 15 -32 48 -14 vhcurveto
          -70 vlineto
          -10 -5 -4 -11 vhcurveto
          -22 -79 59 hlineto
          77 22 24 51 hvcurveto
          79 49 -194 120 208 vlineto
          37 16 13 30 47 157 callgsubr
          180 160 171 319 callsubr
        </CharString>
        <CharString name="dvNG_MA">
          296 557 418 352 callsubr
          26 -192 rmoveto
          -153 102 hlineto
          -43 callgsubr
          180 160 176 hlineto
          3 callsubr
          -833 102 callsubr
          -89 callgsubr
          56 hlineto
          12 12 1 2 12 hvcurveto
          -100 170 81 153 -151 170 696 60 vlineto
          endchar
        </CharString>
        <CharString name="dvNY_CA">
          461 978 642 rmoveto
          -998 -113 768 197 callgsubr
          -255 -113 56 370 callsubr
          -3 -75 53 203 callgsubr
          113 43 30 81 5 hvcurveto
          75 hlineto
          -81 6 44 -30 81 58 callsubr
        </CharString>
        <CharString name="dvN_N">
          497 177 callgsubr
          756 113 rmoveto
          -854 -32 callgsubr
          68 -154 -79 callgsubr
          110 vlineto
          -1044 283 rmoveto
          -113 1044 220 callgsubr
        </CharString>
        <CharString name="dvPH_N">
          501 300 callgsubr
          483 -170 rmoveto
          -144 -44 callgsubr
          124 -85 callgsubr
          295 170 rmoveto
          113 -1038 222 callsubr
          335 -89 callsubr
          52 310 callgsubr
          80 356 callsubr
          336 callsubr
          73 vlineto
          endchar
        </CharString>
        <CharString name="dvP_N">
          286 485 -22 callgsubr
          318 314 rmoveto
          113 -823 243 callgsubr
          125 115 callsubr
          80 113 -348 128 callgsubr
          -140 vlineto
          -45 callgsubr
          -48 368 callsubr
        </CharString>
        <CharString name="dvSHA_MatraVocalicR">
          237 217 521 180 callsubr
          477 -365 rmoveto
          483 60 113 -230 -251 -81 112 callsubr
          143 -142 233 callsubr
        </CharString>
        <CharString name="dvSH_VA.aSimp">
          511 200 647 rmoveto
          -98 callsubr
          715 -5 rmoveto
          -535 -113 305 38 callsubr
          -160 -5 callgsubr
          529 60 vlineto
          endchar
        </CharString>
        <CharString name="dvS_N">
          457 656 -22 callgsubr
          318 427 rmoveto
          -994 -113 249 hlineto
          26 8 -8 -26 hvcurveto
          -98 vlineto
          -26 -9 -8 -25 vhcurveto
          -19 109 137 callsubr
          127 276 -45 -79 callgsubr
          80 113 -348 vlineto
          25 callgsubr
          547 hlineto
          endchar
        </CharString>
        <CharString name="dvTH_N">
          445 611 339 rmoveto
          15 8 5 15 vhcurveto
          45 -144 hlineto
          -19 -10 -5 -15 vhcurveto
          -18 hlineto
          -15 -10 5 19 hvcurveto
          -170 10 rmoveto
          129 callsubr
          31 17 10 17 8 hvcurveto
          -19 26 40 -8 58 hhcurveto
          86 hlineto
          120 41 34 93 hvcurveto
          154 113 113 -381 128 callgsubr
          277 vmoveto
          -113 521 220 callgsubr
        </CharString>
        <CharString name="dvTTH_N">
          -9 278 137 -4 callgsubr
          3 -625 rmoveto
          120 311 hlineto
          34 19 13 34 53 368 callgsubr
          179 198 callsubr
          hlineto
          143 -142 rmoveto
          -166 hlineto
          45 callgsubr
          endchar
        </CharString>
        <CharString name="dvTTH_TTHA">
          51 345 -96 rmoveto
          279 callsubr
          319 vmoveto
          279 callsubr
          223 178 rmoveto
          113 -588 -113 205 -44 350 callgsubr
          -78 vlineto
          -89 37 -35 108 -3 vhcurveto
          -51 350 callgsubr
          -78 vlineto
          -77 callsubr
          146 -102 callsubr
          78 369 callsubr
          51 vlineto
          106 4 37 35 88 vvcurveto
          78 369 callsubr
          44 vlineto
          endchar
        </CharString>
        <CharString name="dvTT_GA">
          -9 508 250 callgsubr
          -238 vlineto
          -63 19 -36 49 -16 vhcurveto
          -73 vlineto
          -10 -5 -4 -11 vhcurveto
          -22 -79 59 hlineto
          77 22 24 51 hvcurveto
          79 49 -194 120 213 vlineto
          37 19 14 34 55 66 callsubr
          hlineto
          endchar
        </CharString>
        <CharString name="dvTT_N">
          -9 297 -290 rmoveto
          120 322 hlineto
          22 21 9 30 44 66 callsubr
          113 194 callgsubr
          hlineto
          143 -142 rmoveto
          -166 hlineto
          45 callgsubr
          endchar
        </CharString>
        <CharString name="dvT_KH_NA">
          1145 1202 12 callgsubr
          -1682 -113 492 hlineto
          -30 callgsubr
          -273 -44 callsubr
          50 -244 -63 callsubr
          762 -57 -328 198 callgsubr
          80 hlineto
          38 20 10 21 9 hvcurveto
          -22 25 41 -9 62 hhcurveto
          82 callsubr
        </CharString>
        <CharString name="dvT_N">
          286 449 -22 callgsubr
          354 257 rmoveto
          -623 -44 callsubr
          46 310 callgsubr
          116 vlineto
          -823 283 rmoveto
          -113 823 220 callgsubr
        </CharString>
        <CharString name="dvT_R_KA">
          527 1044 268 callsubr
          -1064 -113 609 62 callgsubr
          -84 -15 vlineto
          -81 119 rlineto
          -3 callgsubr
          21 hlineto
          -75 8 44 -28 78 hhcurveto
          -101 callgsubr
        </CharString>
        <CharString name="dvT_S_NA">
          910 1197 472 rmoveto
          -328 35 callsubr
          527 hlineto
          44 callgsubr
          -1447 -113 492 13 callgsubr
          -273 hlineto
          -109 -31 -34 -73 hvcurveto
          -258 24 callsubr
          127 276 -45 61 callsubr
        </CharString>
        <CharString name="dvV_N">
          256 455 68 callgsubr
          hmoveto
          153 callgsubr
          80 113 -348 128 callgsubr
          -305 339 callgsubr
          793 220 callgsubr
        </CharString>
        <CharString name="dvY_N">
          389 588 -22 callgsubr
          318 427 rmoveto
          -926 2 callsubr
          -48 callsubr
          198 115 callsubr
          80 113 -348 128 callgsubr
          -140 vlineto
          -90 callsubr
          570 hlineto
          endchar
        </CharString>
        <CharString name="e">
          -26 191 297 -61 callgsubr
        </CharString>
        <CharString name="eacute">
          -26 437 682 51 callgsubr
          -113 -235 -61 callgsubr
        </CharString>
        <CharString name="ecaron">
          -26 316 532 2 callgsubr
          29 -235 -61 callgsubr
        </CharString>
        <CharString name="ecircumflex">
          -26 240 601 48 callgsubr
          4 -235 -61 callgsubr
        </CharString>
        <CharString name="edieresis">
          -26 434 672 66 callgsubr
          -3 -245 -61 callgsubr
        </CharString>
        <CharString name="edotaccent">
          -26 317 672 318 callsubr
          -126 -245 -61 callgsubr
        </CharString>
        <CharString name="egrave">
          -26 293 532 132 callsubr
          32 -235 -61 callgsubr
        </CharString>
        <CharString name="eight">
          61 callgsubr
        </CharString>
        <CharString name="ellipsis">
          255 40 hmoveto
          217 callgsubr
          250 -164 rmoveto
          217 callgsubr
          250 -164 rmoveto
          217 callgsubr
          endchar
        </CharString>
        <CharString name="emacron">
          -26 430 661 259 callgsubr
          -239 -258 -61 callgsubr
        </CharString>
        <CharString name="emdash">
          252 46 245 rmoveto
          648 115 -648 hlineto
          endchar
        </CharString>
        <CharString name="endash">
          110 46 245 rmoveto
          409 115 -409 hlineto
          endchar
        </CharString>
        <CharString name="eogonek">
          -26 191 297 rmoveto
          63 65 callgsubr
          -63 vlineto
          -108 202 103 callgsubr
          29 -17 -6 hlineto
          90 callgsubr
          -91 hlineto
          116 callsubr
          114 2 -13 callgsubr
          45 -161 -28 vlineto
          -15 -8 -9 100 callsubr
          66 255 170 -14 callsubr
          endchar
        </CharString>
        <CharString name="equal">
          36 25 361 rmoveto
          483 129 -483 hlineto
          -341 vmoveto
          483 129 -483 hlineto
          endchar
        </CharString>
        <CharString name="eth">
          -3 290 254 callsubr
          -40 -55 callgsubr
          143 -41 callsubr
          65 -3 hlineto
          137 241 rmoveto
          84 vlineto
          -87 -26 -15 15 -13 11 -10 8 rlinecurve
          -235 hlineto
          21 -14 44 -28 43 -42 -60 -18 rcurveline
          -84 vlineto
          116 35 14 -19 12 -22 9 -23 rlinecurve
          -89 141 callgsubr
          -179 -29 callsubr
          133 -13 callgsubr
          183 vlineto
          99 -30 77 -35 57 vhcurveto
          endchar
        </CharString>
        <CharString name="exclam">
          -200 50 642 rmoveto
          30 -409 rlineto
          137 hlineto
          30 409 rlineto
          -185 -642 rmoveto
          217 callgsubr
          endchar
        </CharString>
        <CharString name="exclamdown">
          -200 62 335 rmoveto
          217 callgsubr
          185 -642 rmoveto
          -30 409 rlineto
          -137 hlineto
          -30 -409 rlineto
          endchar
        </CharString>
        <CharString name="f">
          -183 309 549 rmoveto
          120 -101 vlineto
          23 callsubr
          -46 -51 -125 51 -374 170 374 78 125 -78 28 -41 callsubr
          endchar
        </CharString>
        <CharString name="fi">
          13 470 499 rmoveto
          -242 30 hlineto
          15 8 7 17 vhcurveto
          16 118 -61 141 callgsubr
          -46 -51 -125 51 -374 167 374 75 -374 167 vlineto
          -167 669 rmoveto
          -118 167 118 vlineto
          endchar
        </CharString>
        <CharString name="five">
          146 callgsubr
        </CharString>
        <CharString name="fl">
          13 304 669 rmoveto
          -170 -76 30 -41 callsubr
          16 118 -61 141 callgsubr
          -46 -51 -125 51 -374 167 374 76 -374 166 669 vlineto
          endchar
        </CharString>
        <CharString name="florin">
          -48 414 544 rmoveto
          125 -101 vlineto
          -107 -29 -50 -74 -11 hvcurveto
          -7 -46 rlineto
          -84 -125 66 hlineto
          -55 -374 rlineto
          -15 -2 -6 -7 -17 hhcurveto
          -53 -125 101 hlineto
          107 29 50 74 11 hvcurveto
          58 397 rlineto
          99 125 -80 hlineto
          3 23 rlineto
          15 2 6 7 17 hhcurveto
          endchar
        </CharString>
        <CharString name="four">
          218 callsubr
        </CharString>
        <CharString name="fraction">
          230 callsubr
        </CharString>
        <CharString name="g">
          -18 225 155 27 callgsubr
        </CharString>
        <CharString name="gbreve">
          -18 289 532 rmoveto
          107 40 49 75 hvcurveto
          26 -150 108 callsubr
          36 -377 27 callgsubr
        </CharString>
        <CharString name="germandbls">
          180 262 163 rmoveto
          -39 vlineto
          -74 37 -48 103 -2 vhcurveto
          126 hlineto
          107 30 49 75 hvcurveto
          60 -14 callsubr
          -60 -55 callgsubr
          7 -41 callsubr
          26 hlineto
          107 20 29 75 hvcurveto
          63 vlineto
          69 -40 47 -98 vhcurveto
          -291 hlineto
          -107 -30 -49 -75 hvcurveto
          -518 175 495 -41 callsubr
          159 hlineto
          17 5 -7 -15 hvcurveto
          -16 vlineto
          -15 -5 -7 -17 -99 -38 -37 -75 vhcurveto
          -22 vlineto
          -75 30 -49 107 vhcurveto
          66 -58 callsubr
          -40 149 callgsubr
          -18 hlineto
          -14 1 -6 7 14 vvcurveto
          26 vlineto
          endchar
        </CharString>
        <CharString name="grave">
          3 266 682 288 callgsubr
        </CharString>
        <CharString name="greater">
          36 340 323 rmoveto
          -315 -81 rlineto
          -136 vlineto
          483 146 rlineto
          146 vlineto
          -483 138 rlineto
          -134 vlineto
          endchar
        </CharString>
        <CharString name="greaterequal">
          36 390 429 rmoveto
          -365 -31 rlineto
          -128 vlineto
          483 86 rlineto
          150 vlineto
          -483 78 rlineto
          -126 vlineto
          -319 vmoveto
          483 118 -483 hlineto
          endchar
        </CharString>
        <CharString name="guillemotleft">
          4 125 96 309 callgsubr
          322 -153 309 callgsubr
          endchar
        </CharString>
        <CharString name="guillemotright">
          4 284 249 309 callsubr
          322 153 309 callsubr
          endchar
        </CharString>
        <CharString name="guilsinglleft">
          -198 125 96 rmoveto
          169 hlineto
          -107 153 107 151 rlineto
          -169 hlineto
          -110 -151 rlineto
          endchar
        </CharString>
        <CharString name="guilsinglright">
          -198 294 249 rmoveto
          -110 151 rlineto
          -169 hlineto
          107 -151 -107 -153 rlineto
          169 hlineto
          endchar
        </CharString>
        <CharString name="h">
          -13 298 499 rmoveto
          -47 -29 -20 -34 -12 hvcurveto
          224 -170 -669 28 callgsubr
        </CharString>
        <CharString name="hungarumlaut">
          3 223 532 360 callsubr
          -287 -150 360 callsubr
          endchar
        </CharString>
        <CharString name="hyphen">
          333 callgsubr
        </CharString>
        <CharString name="i">
          210 callgsubr
          -3 549 378 callsubr
        </CharString>
        <CharString name="iacute">
          210 callgsubr
          14 532 147 callgsubr
          endchar
        </CharString>
        <CharString name="icircumflex">
          210 callgsubr
          -127 532 223 callsubr
        </CharString>
        <CharString name="idieresis">
          210 callgsubr
          -114 542 179 callgsubr
          endchar
        </CharString>
        <CharString name="igrave">
          210 callgsubr
          58 682 288 callgsubr
        </CharString>
        <CharString name="imacron">
          210 callgsubr
          -110 555 344 callgsubr
        </CharString>
        <CharString name="infinity">
          110 497 301 rmoveto
          -24 -3 -8 -26 vhcurveto
          -37 hlineto
          -22 -16 20 20 -13 hvcurveto
          -22 33 32 56 rlineto
          20 11 9 9 17 hhcurveto
          10 -1 31 hlineto
          26 3 -9 -23 hvcurveto
          -359 -125 rmoveto
          -26 -3 8 24 hvcurveto
          93 vlineto
          23 3 9 26 vhcurveto
          26 hlineto
          23 16 -19 -22 14 hvcurveto
          25 -39 -27 -48 rlineto
          -15 -9 -16 -14 -21 hhcurveto
          252 262 rmoveto
          -69 -15 -18 -64 -36 hvcurveto
          -4 -7 -2 3 rlineto
          53 -35 -27 33 -60 hhcurveto
          -39 141 callgsubr
          -119 -29 callsubr
          35 hlineto
          71 23 9 64 36 hvcurveto
          5 8 5 -7 rlineto
          -56 40 28 -18 63 hhcurveto
          32 -13 callgsubr
          119 -14 callsubr
          endchar
        </CharString>
        <CharString name="integral">
          -14 336 542 rmoveto
          15 2 6 7 17 hhcurveto
          53 125 -101 141 callgsubr
          -566 vlineto
          -15 -2 -6 -7 -17 hhcurveto
          -53 -125 101 -13 callgsubr
          endchar
        </CharString>
        <CharString name="iogonek">
          213 669 rmoveto
          -176 -120 176 hlineto
          -76 -726 326 callgsubr
          -170 -499 79 -17 -6 hlineto
          316 callgsubr
        </CharString>
        <CharString name="itfLogo">
          1151 147 hmoveto
          242 callsubr
          236 -634 rmoveto
          242 callsubr
          236 -634 rmoveto
          242 callsubr
          -410 vmoveto
          196 185 -196 hlineto
          endchar
        </CharString>
        <CharString name="itfStar">
          175 663 452 rmoveto
          -28 -200 -6 -2 -34 hvcurveto
          -66 246 -8 -27 -53 -188 -8 -31 rlinecurve
          -261 8 25 -15 168 -108 28 -17 rlinecurve
          -96 -247 24 20 152 128 29 20 rlinecurve
          204 -168 -11 28 -71 189 -12 30 rlinecurve
          endchar
        </CharString>
        <CharString name="j">
          40 13 9 callsubr
          -33 -120 81 -13 callgsubr
          504 -170 vlineto
          -3 50 378 callsubr
        </CharString>
        <CharString name="k">
          -22 480 499 256 callgsubr
        </CharString>
        <CharString name="l">
          210 hmoveto
          334 callsubr
          endchar
        </CharString>
        <CharString name="lacute">
          56 702 147 callgsubr
          57 -852 rmoveto
          334 callsubr
          endchar
        </CharString>
        <CharString name="lcaron">
          -197 250 669 rmoveto
          378 callgsubr
          -156 -669 rmoveto
          334 callsubr
          endchar
        </CharString>
        <CharString name="less">
          36 508 402 rmoveto
          134 vlineto
          -483 -138 rlineto
          -146 vlineto
          483 -146 rlineto
          136 vlineto
          -315 81 rlineto
          endchar
        </CharString>
        <CharString name="lessequal">
          36 508 458 rmoveto
          126 vlineto
          -483 -78 rlineto
          -150 vlineto
          483 -86 rlineto
          128 vlineto
          -365 31 rlineto
          365 -172 rmoveto
          -483 -118 483 hlineto
          endchar
        </CharString>
        <CharString name="logicalnot">
          70 507 417 rmoveto
          -457 -175 342 -141 115 hlineto
          endchar
        </CharString>
        <CharString name="lozenge">
          202 335 125 rmoveto
          -101 198 101 194 108 -194 rlineto
          -21 319 rmoveto
          -173 hlineto
          -182 -319 182 -322 rlineto
          173 hlineto
          188 322 rlineto
          endchar
        </CharString>
        <CharString name="lslash">
          -237 319 529 rmoveto
          -104 -50 rlineto
          190 -170 -272 vlineto
          -100 -48 rlineto
          -115 vlineto
          100 48 rlineto
          -282 170 364 vlineto
          104 50 rlineto
          endchar
        </CharString>
        <CharString name="m">
          226 537 499 rmoveto
          -50 -38 -25 -38 -11 hvcurveto
          39 -18 -38 24 -66 hhcurveto
          -18 hlineto
          227 callgsubr
          -499 170 344 vlineto
          21 9 9 18 vhcurveto
          17 hlineto
          17 8 -7 -15 hvcurveto
          -352 28 callgsubr
        </CharString>
        <CharString name="macron">
          3 55 555 344 callgsubr
        </CharString>
        <CharString name="minus">
          169 15 257 348 callsubr
          endchar
        </CharString>
        <CharString name="multiply">
          -15 462 435 rmoveto
          -97 97 -124 -124 -124 124 -97 -97 124 -124 -124 -124 97 -97 124 124 124 -124 97 97 -124 124 rlineto
          endchar
        </CharString>
        <CharString name="n">
          -13 298 499 rmoveto
          227 callgsubr
          -499 28 callgsubr
        </CharString>
        <CharString name="nacute">
          -13 423 682 51 callgsubr
          8 -33 rmoveto
          227 callgsubr
          -499 28 callgsubr
        </CharString>
        <CharString name="ncaron">
          -13 309 532 2 callgsubr
          143 -33 rmoveto
          227 callgsubr
          -499 28 callgsubr
        </CharString>
        <CharString name="nine">
          101 callgsubr
        </CharString>
        <CharString name="notequal">
          36 508 361 rmoveto
          129 -93 vlineto
          33 60 rlineto
          -109 hlineto
          -33 -60 rlineto
          -281 -129 210 hlineto
          -46 -83 rlineto
          -164 -129 93 hlineto
          -33 -60 rlineto
          109 hlineto
          33 60 rlineto
          281 129 -210 hlineto
          46 83 rlineto
          endchar
        </CharString>
        <CharString name="ntilde">
          -13 172 563 rmoveto
          210 callsubr
          21 callsubr
          vlineto
          126 -33 rmoveto
          227 callgsubr
          -499 28 callgsubr
        </CharString>
        <CharString name="numbersign">
          181 374 252 rmoveto
          -100 hlineto
          30 137 rlineto
          100 hlineto
          244 hmoveto
          110 -73 vlineto
          32 142 rlineto
          -146 hlineto
          -32 -142 rlineto
          -100 hlineto
          32 142 rlineto
          -145 hlineto
          -32 -142 rlineto
          -107 -110 82 hlineto
          -31 -137 rlineto
          -98 -110 73 hlineto
          -32 -142 rlineto
          146 hlineto
          32 142 rlineto
          100 hlineto
          -32 -142 rlineto
          145 hlineto
          32 142 rlineto
          107 110 -82 hlineto
          31 137 rlineto
          endchar
        </CharString>
        <CharString name="o">
          -16 279 140 -53 callgsubr
        </CharString>
        <CharString name="oacute">
          -16 447 682 51 callgsubr
          -35 -392 -53 callgsubr
        </CharString>
        <CharString name="ocircumflex">
          -16 241 601 48 callgsubr
          91 -392 -53 callgsubr
        </CharString>
        <CharString name="odieresis">
          -16 437 672 66 callgsubr
          82 -402 -53 callgsubr
        </CharString>
        <CharString name="oe">
          336 300 callsubr
          -251 -145 rmoveto
          -21 -9 -9 -18 vhcurveto
          -17 hlineto
          -4 callsubr
          18 9 -9 -21 hvcurveto
          207 155 rmoveto
          -69 -41 -21 -35 -21 hvcurveto
          35 -19 -47 21 -48 hhcurveto
          -68 hlineto
          -95 -38 103 callsubr
          38 -49 95 vhcurveto
          67 hlineto
          48 47 21 35 19 hvcurveto
          -35 21 41 -21 69 hhcurveto
          63 -13 callgsubr
          43 -165 -25 347 callgsubr
          59 251 174 -14 callsubr
          endchar
        </CharString>
        <CharString name="ogonek">
          3 284 -177 rmoveto
          116 callsubr
          129 -91 -32 -6 hlineto
          316 callgsubr
        </CharString>
        <CharString name="ograve">
          -16 303 532 132 callsubr
          110 -392 -53 callgsubr
        </CharString>
        <CharString name="ohungarumlaut">
          -16 384 532 127 callgsubr
          85 -392 -53 callgsubr
        </CharString>
        <CharString name="omacron">
          -16 427 661 259 callgsubr
          -148 -415 -53 callgsubr
        </CharString>
        <CharString name="one">
          312 callgsubr
        </CharString>
        <CharString name="onesuperior">
          -279 169 642 rmoveto
          -159 -69 49 -284 110 hlineto
          endchar
        </CharString>
        <CharString name="ordfeminine">
          -160 147 375 rmoveto
          -12 -5 5 11 hvcurveto
          151 vlineto
          11 5 5 12 vhcurveto
          36 hlineto
          13 6 -7 -14 hvcurveto
          -140 vlineto
          -15 -6 -7 -13 vhcurveto
          22 267 rmoveto
          -43 vlineto
          27 -6 -17 16 -36 hhcurveto
          -27 hlineto
          -67 -27 -34 -54 hvcurveto
          -177 vlineto
          -53 27 -35 67 vhcurveto
          31 hlineto
          30 15 11 19 7 hvcurveto
          -30 105 353 vlineto
          endchar
        </CharString>
        <CharString name="ordmasculine">
          -166 201 373 rmoveto
          -11 -6 -4 -12 vhcurveto
          -35 hlineto
          -12 -6 4 11 hvcurveto
          184 vlineto
          11 6 5 12 vhcurveto
          35 hlineto
          12 6 -5 -11 hvcurveto
          -76 85 rmoveto
          -75 -25 -34 -54 hvcurveto
          -177 vlineto
          -53 25 -35 75 vhcurveto
          80 hlineto
          76 25 35 53 hvcurveto
          177 vlineto
          54 -25 34 -76 vhcurveto
          endchar
        </CharString>
        <CharString name="oslash">
          -16 284 135 9 callsubr
          -37 hlineto
          -14 -8 5 10 -2 hvcurveto
          86 131 rlineto
          -87 105 rmoveto
          15 8 7 17 vhcurveto
          37 307 callsubr
          -12 2 hvcurveto
          -87 -130 rlineto
          260 280 rmoveto
          -74 hlineto
          -18 -27 rlineto
          5 -17 -20 2 -24 hhcurveto
          -127 hlineto
          -107 -35 136 callgsubr
          -36 8 -30 20 -21 vhcurveto
          -38 -57 rlineto
          74 hlineto
          18 27 rlineto
          -5 17 20 -2 23 hhcurveto
          127 hlineto
          107 35 49 75 hvcurveto
          251 vlineto
          35 -8 30 -19 21 vhcurveto
          endchar
        </CharString>
        <CharString name="otilde">
          -16 175 563 rmoveto
          210 callsubr
          21 callsubr
          vlineto
          104 -392 -53 callgsubr
        </CharString>
        <CharString name="p">
          -18 279 150 callgsubr
          227 callgsubr
          -628 170 183 vlineto
          -34 12 29 -20 47 257 callsubr
        </CharString>
        <CharString name="paragraph">
          72 331 642 rmoveto
          -157 141 callgsubr
          -184 -29 callsubr
          22 -339 135 hlineto
          53 771 rmoveto
          -771 135 771 vlineto
          endchar
        </CharString>
        <CharString name="parenleft">
          -160 40 497 rmoveto
          -356 vlineto
          -201 103 -106 175 vhcurveto
          9 145 -9 hlineto
          -55 -48 35 124 hvcurveto
          362 vlineto
          124 48 35 55 vhcurveto
          9 145 -9 hlineto
          -175 -103 -106 -201 hvcurveto
          endchar
        </CharString>
        <CharString name="parenright">
          -160 297 141 rmoveto
          356 vlineto
          201 -103 106 -175 vhcurveto
          -9 -145 9 hlineto
          55 48 -35 -124 hvcurveto
          -362 vlineto
          -124 -48 -35 -55 vhcurveto
          -9 -145 9 hlineto
          175 103 106 201 hvcurveto
          endchar
        </CharString>
        <CharString name="percent">
          401 52 callgsubr
          endchar
        </CharString>
        <CharString name="period">
          -245 40 hmoveto
          217 callgsubr
          endchar
        </CharString>
        <CharString name="periodcentered">
          -225 49 258 rmoveto
          172 154 -172 hlineto
          endchar
        </CharString>
        <CharString name="perthousand">
          773 52 callgsubr
          550 -359 rmoveto
          61 -32 39 -86 vhcurveto
          -102 hlineto
          -86 -32 -39 -61 hvcurveto
          -183 vlineto
          -60 32 -40 86 vhcurveto
          102 hlineto
          86 32 40 60 hvcurveto
          -141 20 rmoveto
          -12 -6 -5 -14 vhcurveto
          -16 hlineto
          -14 -6 5 12 hvcurveto
          143 vlineto
          12 6 6 14 vhcurveto
          16 hlineto
          14 6 -6 -12 hvcurveto
          endchar
        </CharString>
        <CharString name="pi">
          73 560 499 rmoveto
          -492 -352 hlineto
          330 callsubr
          260 76 -384 175 384 71 vlineto
          endchar
        </CharString>
        <CharString name="plus">
          16 498 382 rmoveto
          -160 155 -163 -155 -160 -125 160 -155 163 155 160 hlineto
          endchar
        </CharString>
        <CharString name="plusminus">
          36 25 139 348 callsubr
          323 228 rmoveto
          75 -163 -75 -160 -121 160 -75 163 75 160 121 vlineto
          endchar
        </CharString>
        <CharString name="product">
          42 498 582 rmoveto
          60 -440 -495 vlineto
          330 callsubr
          403 96 -527 175 582 vlineto
          endchar
        </CharString>
        <CharString name="q">
          -18 225 125 -28 callgsubr
          -183 170 628 vlineto
          endchar
        </CharString>
        <CharString name="question">
          -28 139 hmoveto
          217 callgsubr
          28 478 rmoveto
          23 callsubr
          -81 175 68 -41 callsubr
          29 -58 callsubr
          -97 149 callgsubr
          -110 hlineto
          15 -153 rlineto
          146 hlineto
          6 61 rlineto
          104 1 39 49 74 vvcurveto
          100 -14 callsubr
          endchar
        </CharString>
        <CharString name="questiondown">
          -28 330 499 rmoveto
          -172 -164 172 hlineto
          -56 -273 rmoveto
          -68 vlineto
          358 callgsubr
          97 -41 callsubr
          110 hlineto
          -15 153 rlineto
          -146 hlineto
          -6 -61 rlineto
          -104 -1 -39 -49 -74 vvcurveto
          -100 -29 callsubr
          135 -13 callgsubr
          81 vlineto
          endchar
        </CharString>
        <CharString name="quotedbl">
          -63 40 642 rmoveto
          -266 153 266 vlineto
          48 hmoveto
          -266 153 266 vlineto
          endchar
        </CharString>
        <CharString name="quotedblbase">
          -33 40 164 rmoveto
          274 callgsubr
          40 hmoveto
          274 callgsubr
          endchar
        </CharString>
        <CharString name="quotedblleft">
          -33 424 329 rmoveto
          313 -45 350 callsubr
          -40 hmoveto
          313 -45 350 callsubr
          endchar
        </CharString>
        <CharString name="quotedblright">
          -33 40 642 rmoveto
          274 callgsubr
          40 hmoveto
          274 callgsubr
          endchar
        </CharString>
        <CharString name="quoteleft">
          -243 214 329 rmoveto
          313 -47 350 callsubr
          endchar
        </CharString>
        <CharString name="quoteright">
          -243 40 642 rmoveto
          -313 47 vlineto
          127 223 rlineto
          90 vlineto
          endchar
        </CharString>
        <CharString name="quotesinglbase">
          258 callsubr
          endchar
        </CharString>
        <CharString name="quotesingle">
          -254 40 642 rmoveto
          -266 163 266 vlineto
          endchar
        </CharString>
        <CharString name="r">
          -162 315 504 271 callgsubr
        </CharString>
        <CharString name="racute">
          -162 383 682 51 callgsubr
          -43 266 callsubr
        </CharString>
        <CharString name="rcaron">
          -162 261 532 2 callgsubr
          100 266 callsubr
        </CharString>
        <CharString name="registered">
          -19 448 556 rmoveto
          107 -32 72 -120 vhcurveto
          -115 hlineto
          -120 -31 -72 -107 hvcurveto
          -19 vlineto
          -106 31 -73 -22 callsubr
          115 hlineto
          120 32 73 106 hvcurveto
          -247 -117 rmoveto
          -64 -31 13 93 hvcurveto
          42 vlineto
          92 31 13 64 vhcurveto
          76 hlineto
          64 30 -13 -92 hvcurveto
          -42 vlineto
          -93 -30 -13 -64 vhcurveto
          -108 222 rmoveto
          -189 57 66 4 vlineto
          33 -66 rlineto
          62 hlineto
          -39 68 rlineto
          19 6 8 14 19 vvcurveto
          42 vlineto
          24 -13 16 -35 vhcurveto
          -9 -75 rmoveto
          -5 -3 -2 -5 vhcurveto
          -22 42 22 hlineto
          5 3 -2 -5 hvcurveto
          endchar
        </CharString>
        <CharString name="ring">
          3 395 615 rmoveto
          54 -25 36 -77 vhcurveto
          -86 hlineto
          -77 -25 -36 -54 hvcurveto
          -16 vlineto
          -54 25 -35 77 vhcurveto
          86 hlineto
          77 25 35 54 hvcurveto
          -106 1 rmoveto
          -13 -5 -6 -15 vhcurveto
          -38 hlineto
          -15 -5 6 13 hvcurveto
          14 vlineto
          13 5 6 15 vhcurveto
          38 hlineto
          15 5 -6 -13 hvcurveto
          endchar
        </CharString>
        <CharString name="s">
          -52 255 132 101 callsubr
        </CharString>
        <CharString name="sacute">
          -52 162 532 147 callgsubr
          -4 97 callsubr
        </CharString>
        <CharString name="scaron">
          -52 145 532 178 callsubr
          243 97 callsubr
        </CharString>
        <CharString name="section">
          43 312 254 9 callsubr
          -34 -55 callgsubr
          84 -41 callsubr
          34 -58 callsubr
          168 174 rmoveto
          33 -14 callsubr
          -117 141 callgsubr
          -61 vlineto
          -37 10 -30 22 -22 vhcurveto
          -24 -21 -9 -33 -43 vvcurveto
          -57 vlineto
          -75 40 -49 275 callsubr
          -40 149 callgsubr
          -21 -55 callgsubr
          25 -170 -33 -29 callsubr
          117 -13 callgsubr
          61 vlineto
          33 -8 27 -17 21 vhcurveto
          19 22 7 30 39 vvcurveto
          71 vlineto
          75 -40 49 275 callgsubr
          40 -41 callsubr
          21 -58 callsubr
          -25 vlineto
          endchar
        </CharString>
        <CharString name="semicolon">
          258 callsubr
          -172 171 rmoveto
          217 callgsubr
          endchar
        </CharString>
        <CharString name="seven">
          270 callsubr
        </CharString>
        <CharString name="six">
          104 callgsubr
        </CharString>
        <CharString name="slash">
          230 callsubr
        </CharString>
        <CharString name="space">
          -297 endchar
        </CharString>
        <CharString name="sterling">
          9 212 125 rmoveto
          20 15 7 25 32 vvcurveto
          47 148 115 -148 136 -41 callsubr
          23 -58 callsubr
          -70 175 93 -14 callsubr
          -129 141 callgsubr
          -159 -44 -115 44 -46 vlineto
          -50 -1 -26 -43 -6 vhcurveto
          -116 471 125 vlineto
          endchar
        </CharString>
        <CharString name="t">
          -194 293 374 240 callsubr
        </CharString>
        <CharString name="tcaron">
          -194 230 597 rmoveto
          -170 -98 -55 -125 55 -250 hlineto
          -75 40 -49 107 vhcurveto
          85 125 -37 -55 callgsubr
          227 63 125 -63 vlineto
          43 232 rmoveto
          -194 40 vlineto
          76 117 rlineto
          77 vlineto
          endchar
        </CharString>
        <CharString name="thorn">
          -8 273 150 callgsubr
          -52 -30 -24 -40 -9 hvcurveto
          234 -167 -798 170 183 vlineto
          -34 12 29 -20 47 257 callsubr
        </CharString>
        <CharString name="three">
          85 callgsubr
        </CharString>
        <CharString name="threesuperior">
          -214 322 callsubr
          -53 vlineto
          -8 -4 -4 -9 vhcurveto
          -37 -64 37 hlineto
          9 4 -3 -9 hvcurveto
          -50 vlineto
          -8 -4 -4 -9 vhcurveto
          -11 hlineto
          -10 -4 4 8 hvcurveto
          35 -106 -48 vlineto
          -41 22 -27 59 vhcurveto
          87 hlineto
          59 22 27 41 hvcurveto
          51 vlineto
          28 -5 19 -21 10 vhcurveto
          21 11 5 22 29 vvcurveto
          47 vlineto
          41 -22 27 -59 vhcurveto
          -87 hlineto
          -59 -22 -27 -41 hvcurveto
          -47 106 vlineto
          endchar
        </CharString>
        <CharString name="tilde">
          3 328 532 rmoveto
          21 callsubr
          31 vlineto
          210 callsubr
          endchar
        </CharString>
        <CharString name="trademark">
          234 10 547 rmoveto
          86 -237 121 237 87 95 -294 hlineto
          571 hmoveto
          -65 -184 -65 184 rlineto
          -120 -332 105 159 hlineto
          38 -116 rlineto
          83 hlineto
          39 118 rlineto
          -161 105 332 vlineto
          endchar
        </CharString>
        <CharString name="two">
          133 callsubr
        </CharString>
        <CharString name="twosuperior">
          -210 322 callsubr
          -37 vlineto
          -32 -2 -10 -20 -18 vhcurveto
          -120 -111 rlineto
          -64 247 73 -117 vlineto
          73 65 rlineto
          28 25 16 31 49 vvcurveto
          42 vlineto
          41 -21 27 -59 vhcurveto
          -88 hlineto
          -59 -22 -27 -41 hvcurveto
          -63 106 vlineto
          endchar
        </CharString>
        <CharString name="u">
          -13 274 499 -23 callgsubr
        </CharString>
        <CharString name="uacute">
          -13 430 682 51 callgsubr
          -23 -33 -23 callgsubr
        </CharString>
        <CharString name="ucircumflex">
          -13 241 601 48 callgsubr
          86 -33 -23 callgsubr
        </CharString>
        <CharString name="udieresis">
          3 435 672 66 callgsubr
          79 -43 -23 callgsubr
        </CharString>
        <CharString name="ugrave">
          -13 312 532 132 callsubr
          96 -33 -23 callgsubr
        </CharString>
        <CharString name="uhungarumlaut">
          -13 391 532 127 callgsubr
          73 -33 -23 callgsubr
        </CharString>
        <CharString name="umacron">
          -13 433 661 259 callgsubr
          -159 -56 -23 callgsubr
        </CharString>
        <CharString name="underscore">
          -23 -155 vmoveto
          474 115 -474 hlineto
          endchar
        </CharString>
        <CharString name="uni00A0">
          -297 endchar
        </CharString>
        <CharString name="uni00AD">
          333 callgsubr
        </CharString>
        <CharString name="uni00B5">
          -8 279 499 rmoveto
          -344 vlineto
          113 callgsubr
          352 -170 -628 170 130 vlineto
          40 6 24 22 8 35 rrcurveto
          -64 167 366 callsubr
        </CharString>
        <CharString name="uni0122">
          4 180 73 callsubr
          291 468 55 callsubr
        </CharString>
        <CharString name="uni0123">
          -18 335 784 rmoveto
          -52 hlineto
          -115 -166 rlineto
          -87 167 vlineto
          -110 -376 27 callgsubr
        </CharString>
        <CharString name="uni0136">
          33 524 hmoveto
          -126 328 320 callgsubr
          -121 642 rmoveto
          -175 325 callgsubr
          hlineto
          -42 73 callsubr
          endchar
        </CharString>
        <CharString name="uni0137">
          -22 164 73 callsubr
          316 545 256 callgsubr
        </CharString>
        <CharString name="uni013B">
          -83 142 73 callsubr
          73 171 246 callsubr
        </CharString>
        <CharString name="uni013C">
          210 hmoveto
          334 callsubr
          1 -46 152 callgsubr
        </CharString>
        <CharString name="uni0145">
          156 callgsubr
          -318 -688 152 callgsubr
        </CharString>
        <CharString name="uni0146">
          -13 162 73 callsubr
          136 545 rmoveto
          227 callgsubr
          -499 28 callgsubr
        </CharString>
        <CharString name="uni0156">
          17 284 517 rmoveto
          17 8 -7 -15 hvcurveto
          -126 149 callgsubr
          -69 170 hlineto
          -289 vmoveto
          11 hlineto
          102 -228 rlineto
          188 hlineto
          -118 235 rlineto
          62 16 24 42 59 vvcurveto
          166 -14 callsubr
          -297 325 callgsubr
          hlineto
          -51 73 callsubr
          endchar
        </CharString>
        <CharString name="uni0157">
          -162 41 73 callsubr
          274 550 271 callgsubr
        </CharString>
        <CharString name="uni015E">
          -6 286 147 -39 callgsubr
          -130 -284 152 callgsubr
        </CharString>
        <CharString name="uni015F">
          -52 255 132 -35 callgsubr
          -117 -218 152 callgsubr
        </CharString>
        <CharString name="uni0162">
          -65 133 73 callsubr
          294 688 204 callsubr
        </CharString>
        <CharString name="uni0163">
          -65 132 73 callsubr
          295 688 204 callsubr
        </CharString>
        <CharString name="uni0218">
          -6 286 147 -39 callgsubr
          -128 -284 152 callgsubr
        </CharString>
        <CharString name="uni0219">
          -52 255 132 -35 callgsubr
          -127 -218 152 callgsubr
        </CharString>
        <CharString name="uni021A">
          -65 131 73 callsubr
          296 688 204 callsubr
        </CharString>
        <CharString name="uni021B">
          -194 82 73 callsubr
          211 420 240 callsubr
        </CharString>
        <CharString name="uni02C9">
          3 55 554 rmoveto
          389 107 -389 hlineto
          endchar
        </CharString>
        <CharString name="uni0901">
          -497 -372 223 callgsubr
          49 71 28 callsubr
        </CharString>
        <CharString name="uni0902">
          -497 -181 857 28 callsubr
        </CharString>
        <CharString name="uni0902.aMatraI">
          -497 30 787 28 callsubr
        </CharString>
        <CharString name="uni0903">
          -235 70 187 rmoveto
          -129 122 129 vlineto
          -122 298 28 callsubr
        </CharString>
        <CharString name="uni0905">
          334 callgsubr
          -230 -274 -100 hlineto
          -47 callgsubr
          60 vlineto
          endchar
        </CharString>
        <CharString name="uni0906">
          335 callgsubr
          -480 -274 -100 hlineto
          -54 callgsubr
          endchar
        </CharString>
        <CharString name="uni0907">
          -35 414 305 callsubr
          68 113 -502 53 callsubr
          endchar
        </CharString>
        <CharString name="uni0908">
          -35 490 709 rmoveto
          103 -106 128 callgsubr
          -63 -264 53 callsubr
          191 160 68 113 -68 47 hlineto
          -103 callgsubr
          endchar
        </CharString>
        <CharString name="uni09080902">
          -35 414 786 159 callsubr
          72 103 -125 -12 callgsubr
          -160 -264 53 callsubr
          191 160 68 113 -68 hlineto
          36 133 272 callsubr
        </CharString>
        <CharString name="uni0909">
          -26 482 642 rmoveto
          -502 153 callsubr
          181 158 callgsubr
          99 vlineto
          10 -2 8 -4 7 vhcurveto
          66 hlineto
          endchar
        </CharString>
        <CharString name="uni090A">
          180 697 642 rmoveto
          -717 153 callsubr
          124 42 vlineto
          15 8 -5 -19 hvcurveto
          -74 52 callsubr
          -113 24 callgsubr
          110 47 callgsubr
          -151 5 hlineto
          30 4 17 15 37 vvcurveto
          99 vlineto
          10 -2 8 -4 7 vhcurveto
          281 hlineto
          endchar
        </CharString>
        <CharString name="uni090B">
          519 744 265 callgsubr
          -230 228 rmoveto
          522 113 -1056 -113 364 -248 -15 hlineto
          -81 119 rlineto
          -3 callgsubr
          20 -181 170 181 269 -81 callsubr
          -38 215 callgsubr
          18 -170 -34 41 callgsubr
          70 158 callgsubr
          51 84 callsubr
          -80 192 callgsubr
          -39 vlineto
          -10 2 -8 4 -7 vhcurveto
          -66 hlineto
          endchar
        </CharString>
        <CharString name="uni090C">
          243 700 46 rmoveto
          483 117 callgsubr
          -210 233 callsubr
        </CharString>
        <CharString name="uni090D">
          15 362 675 rmoveto
          283 callgsubr
          -140 -93 vlineto
          -65 38 -34 114 vhcurveto
          366 -33 rmoveto
          -552 -113 60 -422 hlineto
          26 callgsubr
        </CharString>
        <CharString name="uni090E">
          15 532 642 rmoveto
          -60 74 hlineto
          105 callgsubr
          -322 -113 60 -422 vlineto
          26 callgsubr
        </CharString>
        <CharString name="uni090F">
          15 532 642 rmoveto
          -552 -113 60 -422 hlineto
          26 callgsubr
        </CharString>
        <CharString name="uni0910">
          15 532 642 rmoveto
          -62 249 callsubr
          -324 -113 60 -422 hlineto
          26 callgsubr
        </CharString>
        <CharString name="uni0911">
          335 callgsubr
          -480 -274 -100 hlineto
          -54 callgsubr
          -35 358 75 callgsubr
        </CharString>
        <CharString name="uni0912">
          335 callgsubr
          -60 74 hlineto
          105 callgsubr
          -250 -274 -100 vlineto
          -54 callgsubr
          endchar
        </CharString>
        <CharString name="uni0913">
          335 callgsubr
          -65 249 callsubr
          -249 -274 -100 hlineto
          -54 callgsubr
          endchar
        </CharString>
        <CharString name="uni0914">
          335 callgsubr
          -61 hlineto
          -14 201 rlineto
          84 callgsubr
          -200 hlineto
          117 -98 53 -45 32 -25 54 -33 rlinecurve
          -248 -274 -100 hlineto
          -54 callgsubr
          endchar
        </CharString>
        <CharString name="uni0915">
          203 720 268 callsubr
          -740 -113 285 -314 vlineto
          -19 -8 -5 -15 vhcurveto
          -29 hlineto
          -15 -8 5 19 hvcurveto
          134 vlineto
          15 8 5 15 vhcurveto
          11 103 -64 hlineto
          -109 -31 -34 -73 hvcurveto
          -160 vlineto
          -99 callsubr
        </CharString>
        <CharString name="uni0915093C">
          203 87 120 callgsubr
          633 268 callsubr
          -740 -113 285 -314 vlineto
          -19 -8 -5 -15 vhcurveto
          -29 hlineto
          -15 -8 5 19 hvcurveto
          134 vlineto
          15 8 5 15 vhcurveto
          11 103 -64 hlineto
          -109 -31 -34 -73 hvcurveto
          -160 vlineto
          -99 callsubr
        </CharString>
        <CharString name="uni0915093C094D">
          -5 87 120 callgsubr
          486 268 callsubr
          -593 -113 285 -314 vlineto
          -99 callgsubr
          27 16 5 11 10 hvcurveto
          -94 170 305 -89 callsubr
          115 113 -85 hlineto
          243 callsubr
          vlineto
          endchar
        </CharString>
        <CharString name="uni0915093C094D0915093C">
          693 83 -131 -67 callsubr
          484 -126 -67 callsubr
          188 214 rmoveto
          -49 callsubr
          -226 200 callgsubr
          320 vlineto
          306 callgsubr
          -1230 -113 285 -314 vlineto
          -99 callgsubr
          27 16 5 11 10 hvcurveto
          -94 170 335 -89 callsubr
          58 hlineto
          -4 -15 -2 -15 -14 vvcurveto
          -110 vlineto
          -99 callsubr
        </CharString>
        <CharString name="uni0915093C094D0924">
          479 77 120 callgsubr
          676 442 rmoveto
          -265 hlineto
          243 callsubr
          318 337 callgsubr
          -1003 -113 285 -314 hlineto
          -99 callgsubr
          27 16 5 11 10 hvcurveto
          -94 170 305 -89 callsubr
          52 -222 hlineto
          0 callgsubr
          176 312 callsubr
          -329 185 callsubr
        </CharString>
        <CharString name="uni0915093C094D092B">
          702 77 120 callgsubr
          687 155 callgsubr
          700 87 rmoveto
          113 -1239 -113 285 -314 vlineto
          -99 callgsubr
          27 16 5 11 10 hvcurveto
          -94 170 305 -89 callsubr
          61 -124 hlineto
          -99 callsubr
        </CharString>
        <CharString name="uni0915093C094D092B093C">
          702 89 120 callgsubr
          508 120 callgsubr
          167 155 callgsubr
          700 87 rmoveto
          113 -1239 -113 285 -314 vlineto
          -99 callgsubr
          27 16 5 11 10 hvcurveto
          -94 170 305 -89 callsubr
          61 -124 hlineto
          -99 callsubr
        </CharString>
        <CharString name="uni0915093C094D092C">
          555 77 120 callgsubr
          651 369 rmoveto
          72 103 -312 200 callgsubr
          407 -204 vlineto
          238 callgsubr
          -1092 -113 285 -314 hlineto
          -99 callgsubr
          27 16 5 11 10 hvcurveto
          -94 170 335 -89 callsubr
          47 281 callgsubr
        </CharString>
        <CharString name="uni0915093C094D092E">
          709 77 120 callgsubr
          919 -58 callgsubr
          -313 210 rmoveto
          313 -97 -260 -51 callsubr
          791 226 rmoveto
          -1246 -113 285 -314 hlineto
          -99 callgsubr
          27 16 5 11 10 hvcurveto
          -94 170 295 vlineto
          19 8 5 15 257 callgsubr
        </CharString>
        <CharString name="uni0915093C094D0930">
          203 226 -179 -67 callsubr
          494 579 rmoveto
          113 -740 205 callgsubr
          -294 vlineto
          -27 callgsubr
          335 -64 callsubr
          15 8 -5 -19 hvcurveto
          -114 -61 callsubr
          140 47 callgsubr
          -61 200 callgsubr
          vlineto
          endchar
        </CharString>
        <CharString name="uni0915093C094D0930094D">
          75 226 -179 -67 callsubr
          386 579 rmoveto
          113 -632 205 callgsubr
          -294 vlineto
          -27 callgsubr
          305 -89 callsubr
          154 113 -124 hlineto
          243 callsubr
          vlineto
          endchar
        </CharString>
        <CharString name="uni0915094D">
          -5 573 268 callsubr
          -593 -113 285 -314 vlineto
          -99 callgsubr
          27 16 5 11 10 hvcurveto
          -94 170 305 -89 callsubr
          115 113 -85 hlineto
          243 callsubr
          vlineto
          endchar
        </CharString>
        <CharString name="uni0915094D0915">
          693 755 215 rmoveto
          -49 callsubr
          -226 200 callgsubr
          320 vlineto
          306 callgsubr
          -1230 -113 285 -314 vlineto
          -99 callgsubr
          27 16 5 11 10 hvcurveto
          -94 170 335 -89 callsubr
          58 hlineto
          -4 -15 -2 -15 -14 vvcurveto
          -110 vlineto
          -99 callsubr
        </CharString>
        <CharString name="uni0915094D0916">
          904 733 377 rmoveto
          -57 callgsubr
          99 -192 hlineto
          243 callsubr
          253 callgsubr
          688 147 rmoveto
          -1441 -113 285 -314 hlineto
          -99 callgsubr
          27 16 5 11 10 hvcurveto
          -94 170 305 -89 callsubr
          52 -214 -63 callsubr
          294 -314 hlineto
          -99 callgsubr
          27 16 5 11 10 hvcurveto
          -94 -91 callgsubr
          endchar
        </CharString>
        <CharString name="uni0915094D091A">
          458 745 -36 callsubr
          90 -89 callsubr
          23 113 -228 hlineto
          243 callsubr
          310 337 callgsubr
          -995 -113 285 -314 hlineto
          -99 callgsubr
          27 16 5 11 10 hvcurveto
          -94 170 305 -89 callsubr
          59 370 callsubr
          -70 -16 callgsubr
        </CharString>
        <CharString name="uni0915094D091C">
          701 988 298 callsubr
          -192 336 callsubr
          73 553 337 callgsubr
          -1238 -113 285 -314 hlineto
          -99 callgsubr
          27 16 5 11 10 hvcurveto
          -94 170 335 -89 callsubr
          52 -154 87 callsubr
        </CharString>
        <CharString name="uni0915094D091F">
          461 748 472 rmoveto
          -260 200 callgsubr
          313 337 callgsubr
          -998 -113 285 -314 hlineto
          -99 callgsubr
          27 16 5 11 10 hvcurveto
          -94 170 335 -89 callsubr
          52 -232 hlineto
          -59 callsubr
        </CharString>
        <CharString name="uni0915094D0923">
          721 758 215 5 callgsubr
          -270 191 callgsubr
          85 -87 vlineto
          718 200 rmoveto
          -1258 -113 285 -314 hlineto
          -99 callgsubr
          27 16 5 11 10 hvcurveto
          -94 170 305 -89 callsubr
          62 -124 hlineto
          -103 callsubr
          324 226 callsubr
        </CharString>
        <CharString name="uni0915094D0924">
          247 764 268 callsubr
          -784 -113 329 -73 vlineto
          11 -10 -16 5 -27 hhcurveto
          -249 -113 77 hlineto
          -13 -8 -7 -16 -24 vvcurveto
          -126 vlineto
          -89 callgsubr
          64 103 -31 callgsubr
          134 vlineto
          19 8 5 15 316 callsubr
          -335 -102 callgsubr
        </CharString>
        <CharString name="uni0915094D0924094D092F">
          839 1126 -57 callsubr
          93 -62 callgsubr
          60 274 callsubr
          -88 rmoveto
          -15 -72 callsubr
          -385 -51 callsubr
          124 427 190 callsubr
          -1376 -113 285 -314 hlineto
          -99 callgsubr
          27 16 5 11 10 hvcurveto
          -94 170 284 -89 callsubr
          47 -201 hlineto
          0 callgsubr
          155 312 callsubr
          -103 hlineto
          -88 callsubr
        </CharString>
        <CharString name="uni0915094D0924094D0930">
          504 791 281 rmoveto
          -15 hlineto
          -81 119 rlineto
          51 -35 -24 16 -63 hhcurveto
          -85 -51 callsubr
          78 356 337 callgsubr
          -1041 -113 285 -314 hlineto
          -99 callgsubr
          27 16 5 11 10 hvcurveto
          -94 170 330 81 callsubr
          hlineto
          21 11 -4 -27 18 hvcurveto
          63 -92 294 callsubr
        </CharString>
        <CharString name="uni0915094D0924094D0935">
          713 1000 -36 callsubr
          104 vlineto
          202 callsubr
          -471 hlineto
          243 callsubr
          565 337 callgsubr
          -1250 -113 285 -314 hlineto
          -99 callgsubr
          27 16 5 11 10 hvcurveto
          -94 170 305 -89 callsubr
          62 hlineto
          -6 -5 -4 -9 -10 vvcurveto
          -198 200 callsubr
          62 hlineto
          -6 -5 -4 -9 -10 283 callsubr
        </CharString>
        <CharString name="uni0915094D0925">
          624 1141 642 56 callgsubr
          -162 -51 callsubr
          142 56 113 -511 -113 285 -314 vlineto
          -99 callgsubr
          27 16 5 11 10 hvcurveto
          -94 170 266 -89 callsubr
          62 -85 204 callgsubr
        </CharString>
        <CharString name="uni0915094D0926">
          461 748 459 rmoveto
          -260 -51 callsubr
          86 313 337 callgsubr
          -998 -113 285 -314 hlineto
          -99 callgsubr
          27 16 5 11 10 hvcurveto
          -94 170 322 -89 callsubr
          52 -141 hlineto
          -77 callsubr
          24 148 callgsubr
          278 -170 -63 158 callsubr
          107 -35 callsubr
          213 183 60 hlineto
          endchar
        </CharString>
        <CharString name="uni0915094D0928">
          691 978 442 rmoveto
          -490 hlineto
          243 callsubr
          543 vlineto
          -230 63 callsubr
          94 -85 callgsubr
          45 hlineto
          460 313 rmoveto
          -1228 -113 285 -314 hlineto
          -99 callgsubr
          27 16 5 11 10 hvcurveto
          -94 170 305 -89 callsubr
          52 -124 hlineto
          -103 callsubr
          124 60 -329 -97 callsubr
        </CharString>
        <CharString name="uni0915094D092A">
          477 764 155 callgsubr
          475 200 rmoveto
          -1014 -113 285 -314 hlineto
          -99 callgsubr
          27 16 5 11 10 hvcurveto
          -94 170 305 -89 callsubr
          61 241 callgsubr
          529 60 vlineto
          endchar
        </CharString>
        <CharString name="uni0915094D092A094D0930">
          477 764 145 callsubr
          -276 191 callgsubr
          84 -87 vlineto
          475 200 rmoveto
          -1014 -113 285 -314 hlineto
          -99 callgsubr
          27 16 5 11 10 hvcurveto
          -94 170 305 -89 callsubr
          61 -104 hlineto
          58 callgsubr
        </CharString>
        <CharString name="uni0915094D092B">
          702 764 155 callgsubr
          700 87 rmoveto
          113 -1239 -113 285 -314 vlineto
          -99 callgsubr
          27 16 5 11 10 hvcurveto
          -94 170 305 -89 callsubr
          61 -124 hlineto
          -99 callsubr
        </CharString>
        <CharString name="uni0915094D092E">
          709 996 -58 callgsubr
          -313 210 rmoveto
          313 -97 -260 -51 callsubr
          791 226 rmoveto
          -1246 -113 285 -314 hlineto
          -99 callgsubr
          27 16 5 11 10 hvcurveto
          -94 170 295 vlineto
          19 8 5 15 257 callgsubr
        </CharString>
        <CharString name="uni0915094D092F">
          601 888 -74 callsubr
          -230 -117 rmoveto
          -15 -72 callsubr
          -147 -51 callsubr
          153 189 190 callsubr
          -1138 -113 285 -314 hlineto
          -99 callgsubr
          27 16 5 11 10 hvcurveto
          -94 170 255 -89 callsubr
          52 -74 hlineto
          -88 callsubr
        </CharString>
        <CharString name="uni0915094D0930">
          203 720 268 callsubr
          -740 205 callgsubr
          -294 vlineto
          -27 callgsubr
          335 -64 callsubr
          15 8 -5 -19 hvcurveto
          -114 -61 callsubr
          140 47 callgsubr
          -61 200 callgsubr
          vlineto
          endchar
        </CharString>
        <CharString name="uni0915094D0930.aTrad">
          282 799 268 callsubr
          -819 -113 364 -248 -15 vlineto
          -81 119 rlineto
          -3 callgsubr
          20 -181 170 330 hlineto
          19 8 5 15 316 callsubr
          -129 -61 callsubr
          155 47 callgsubr
          -61 -51 callsubr
          78 vlineto
          endchar
        </CharString>
        <CharString name="uni0915094D0930094D">
          75 612 268 callsubr
          -632 205 callgsubr
          -294 vlineto
          -27 callgsubr
          305 -89 callsubr
          154 113 -124 hlineto
          243 callsubr
          vlineto
          endchar
        </CharString>
        <CharString name="uni0915094D0932">
          708 995 442 208 callsubr
          -294 hlineto
          243 callsubr
          560 337 callgsubr
          -1245 -113 285 -314 hlineto
          -99 callgsubr
          27 16 5 11 10 hvcurveto
          -94 170 305 -89 callsubr
          52 hlineto
          -5 0 -4 -5 vvcurveto
          -208 vlineto
          -89 callgsubr
          228 callsubr
          -329 185 callsubr
        </CharString>
        <CharString name="uni0915094D0935">
          468 755 -36 callsubr
          104 vlineto
          202 callsubr
          -226 hlineto
          243 callsubr
          320 337 callgsubr
          -1005 -113 285 -314 hlineto
          -19 -8 -5 -15 vhcurveto
          -29 hlineto
          -15 -8 5 19 hvcurveto
          134 vlineto
          15 8 5 15 vhcurveto
          11 103 -64 hlineto
          -109 -31 -34 -73 hvcurveto
          -160 187 callsubr
        </CharString>
        <CharString name="uni0915094D0935094D092F">
          846 1133 -74 callsubr
          -230 -117 rmoveto
          -15 -72 callsubr
          -125 -177 hlineto
          -49 callsubr
          -226 200 callgsubr
          434 190 callsubr
          -1383 -113 285 -314 hlineto
          -99 callgsubr
          27 16 5 11 10 hvcurveto
          -94 170 335 -89 callsubr
          56 hlineto
          -2 -10 -2 -11 -11 vvcurveto
          -122 vlineto
          338 callgsubr
          91 hlineto
          36 22 8 15 12 hvcurveto
          -16 26 38 -7 50 -24 callsubr
        </CharString>
        <CharString name="uni0915094D0936">
          707 664 647 39 callgsubr
          -206 -51 callsubr
          139 51 113 -506 -113 285 -314 vlineto
          -99 callgsubr
          27 16 5 11 10 hvcurveto
          -94 170 269 -89 callsubr
          66 139 callgsubr
        </CharString>
        <CharString name="uni0915094D0937">
          276 316 385 83 callsubr
          477 132 rmoveto
          -230 -281 -83 hlineto
          -49 callgsubr
          343 -248 185 callsubr
        </CharString>
        <CharString name="uni0915094D0937094D">
          66 248 510 345 callsubr
          -125 -44 callgsubr
          348 -137 rmoveto
          113 -116 vlineto
          -49 callgsubr
          endchar
        </CharString>
        <CharString name="uni0915094D0937094D092E">
          773 1060 -58 callgsubr
          -496 66 83 callsubr
          974 132 rmoveto
          -766 371 callsubr
          -89 -37 -23 -48 -11 hvcurveto
          -97 hlineto
          -49 callgsubr
          354 -43 124 callsubr
        </CharString>
        <CharString name="uni0915094D0937094D092E094D">
          599 828 285 callgsubr
          -512 66 83 callsubr
          820 19 359 callsubr
          -89 -37 -23 -48 -11 hvcurveto
          -113 hlineto
          -49 callgsubr
          370 -43 hlineto
          281 callsubr
        </CharString>
        <CharString name="uni0915094D0937094D092E094D092F">
          1143 1430 -30 callsubr
          -496 53 83 callsubr
          1344 132 rmoveto
          -1136 356 callgsubr
          -84 -98 hlineto
          -97 -35 -27 -57 -7 hvcurveto
          -95 hlineto
          -49 callgsubr
          354 -43 hlineto
          -103 callsubr
          127 70 -127 vlineto
          -88 callsubr
        </CharString>
        <CharString name="uni0915094D0937094D092F">
          652 939 -57 callsubr
          57 -62 callgsubr
          96 13 callsubr
          -623 -120 -104 callsubr
          101 159 callgsubr
          853 132 rmoveto
          -628 -113 134 hlineto
          -60 callsubr
          -90 -81 callgsubr
          -206 hlineto
          4 7 2 8 10 vvcurveto
          110 84 callsubr
          -86 192 callgsubr
          -88 vlineto
          -22 6 -17 13 -12 vhcurveto
          -45 -11 -27 -35 -60 vvcurveto
          -165 vlineto
          -75 42 -35 65 vhcurveto
          131 hlineto
          27 16 5 11 10 hvcurveto
          -78 170 257 -170 -58 160 callgsubr
          -71 -100 callgsubr
          111 -35 callsubr
          341 -67 hlineto
          -88 callsubr
        </CharString>
        <CharString name="uni0915094D0937094D0935">
          535 316 385 83 callsubr
          720 132 rmoveto
          -495 -113 265 99 callsubr
          -4 -81 vlineto
          -49 callgsubr
          341 -43 hlineto
          12 callsubr
          529 60 vlineto
          endchar
        </CharString>
        <CharString name="uni0915094D0938">
          680 967 155 callsubr
          79 -192 hlineto
          243 callsubr
          264 vlineto
          26 8 -8 -26 hvcurveto
          464 147 rmoveto
          -1217 -113 285 -314 hlineto
          -99 callgsubr
          27 16 5 11 10 hvcurveto
          -94 170 305 -89 callsubr
          52 -222 -94 callgsubr
          287 -250 -97 callsubr
        </CharString>
        <CharString name="uni0915094D0938094D091F">
          922 1209 472 rmoveto
          35 callgsubr
          -2 -74 vlineto
          -72 callgsubr
          312 hlineto
          -476 -132 95 callgsubr
          706 147 rmoveto
          -1459 -113 285 -314 hlineto
          -99 callgsubr
          27 16 5 11 10 hvcurveto
          -94 170 305 -89 callsubr
          52 -222 -94 callgsubr
          291 -123 vlineto
          -59 callsubr
        </CharString>
        <CharString name="uni0915094D0938094D0921">
          910 1111 472 rmoveto
          -106 callgsubr
          -2 -74 vlineto
          -72 callgsubr
          277 -57 hlineto
          -441 -75 95 callgsubr
          611 -126 366 callgsubr
          -1447 -113 285 -314 vlineto
          -99 callgsubr
          27 16 5 11 10 hvcurveto
          -94 170 305 -89 callsubr
          52 -222 -94 callgsubr
          303 vlineto
          -32 17 38 -15 73 hhcurveto
          -40 callgsubr
          endchar
        </CharString>
        <CharString name="uni0915094D0938094D0924">
          912 1199 472 rmoveto
          -103 35 callsubr
          302 hlineto
          -466 -132 95 callgsubr
          696 147 rmoveto
          -1449 -113 285 -314 hlineto
          -99 callgsubr
          27 16 5 11 10 hvcurveto
          -94 170 305 -89 callsubr
          52 -222 -94 callgsubr
          276 -143 31 callsubr
        </CharString>
        <CharString name="uni0915094D0938094D092A094D0930">
          946 1233 -13 callsubr
          -326 186 callsubr
          720 147 rmoveto
          -1483 -113 285 -314 hlineto
          -99 callgsubr
          27 16 5 11 10 hvcurveto
          -94 170 305 -89 callsubr
          62 -222 -94 callgsubr
          298 -45 vlineto
          -68 24 -37 47 -14 vhcurveto
          -98 -146 rlineto
          186 hlineto
          86 139 rlineto
          -79 -97 callsubr
        </CharString>
        <CharString name="uni0915094D0938094D092A094D0932">
          1431 1718 472 rmoveto
          76 callsubr
          314 560 vlineto
          -811 186 callsubr
          1205 147 rmoveto
          -1968 -113 285 -314 hlineto
          -99 callgsubr
          27 16 5 11 10 hvcurveto
          -94 170 305 -89 callsubr
          62 -222 -94 callgsubr
          298 -45 vlineto
          338 callgsubr
          61 hlineto
          27 17 5 11 9 hvcurveto
          -64 4 34 -30 102 hhcurveto
          -48 callgsubr
        </CharString>
        <CharString name="uni0916">
          434 951 642 rmoveto
          -971 -113 249 hlineto
          -80 callgsubr
          294 -314 hlineto
          -99 callgsubr
          27 16 5 11 10 hvcurveto
          -94 -91 callgsubr
          endchar
        </CharString>
        <CharString name="uni0916093C">
          434 160 -177 -67 callsubr
          791 690 rmoveto
          -971 -113 249 hlineto
          -80 callgsubr
          294 -314 hlineto
          -99 callgsubr
          27 16 5 11 10 hvcurveto
          -94 -91 callgsubr
          endchar
        </CharString>
        <CharString name="uni0916093C094D">
          196 160 -177 -67 callsubr
          486 397 rmoveto
          202 callsubr
          -42 callsubr
          -160 vlineto
          338 callgsubr
          165 113 -103 -107 callsubr
          -666 427 rmoveto
          375 callsubr
          vlineto
          -80 callgsubr
          345 319 callsubr
        </CharString>
        <CharString name="uni0916093C094D0924">
          677 160 -177 -67 callsubr
          1034 690 rmoveto
          -1214 -113 249 hlineto
          -80 callgsubr
          537 -57 -103 198 callgsubr
          61 hlineto
          27 17 5 11 9 hvcurveto
          -64 4 34 -30 102 hhcurveto
          -33 callgsubr
        </CharString>
        <CharString name="uni0916093C094D092E">
          920 160 -177 -67 callsubr
          1047 480 235 callsubr
          -1457 -113 249 hlineto
          -80 callgsubr
          532 251 callsubr
          -110 vlineto
          42 callsubr
          36 22 9 18 12 hvcurveto
          -19 25 40 -8 58 125 callsubr
        </CharString>
        <CharString name="uni0916093C094D092F">
          812 160 -177 -67 callsubr
          939 273 21 callgsubr
          -1349 -113 249 hlineto
          -80 callgsubr
          408 hlineto
          -32 callsubr
          -177 hlineto
          42 callsubr
          38 21 10 19 12 hvcurveto
          -20 26 41 -9 55 -24 callsubr
        </CharString>
        <CharString name="uni0916093C094D0930">
          434 687 -179 -67 callsubr
          264 692 rmoveto
          -971 -113 249 hlineto
          173 callsubr
          294 -294 hlineto
          -27 callgsubr
          529 60 vlineto
          endchar
        </CharString>
        <CharString name="uni0916093C094D0930094D">
          223 286 -179 -67 callsubr
          360 399 67 callgsubr
        </CharString>
        <CharString name="uni0916093C094D0935">
          679 160 -177 -67 callsubr
          1036 690 30 callsubr
        </CharString>
        <CharString name="uni0916093C094D0936">
          904 160 -177 -67 callsubr
          50 278 1 callgsubr
        </CharString>
        <CharString name="uni0916093C094D0938">
          904 160 -177 -67 callsubr
          1018 411 rmoveto
          -70 hlineto
          -72 callgsubr
          70 hlineto
          3 callsubr
          -1428 -113 249 hlineto
          -80 callgsubr
          483 100 callgsubr
          -257 hlineto
          -93 callgsubr
          134 -85 callgsubr
          10 103 -63 176 callsubr
          -92 callsubr
          127 287 -250 -97 callsubr
        </CharString>
        <CharString name="uni0916094D">
          196 646 349 rmoveto
          202 callsubr
          -42 callsubr
          -160 vlineto
          338 callgsubr
          165 113 -103 -107 callsubr
          -666 427 rmoveto
          375 callsubr
          vlineto
          -80 callgsubr
          345 319 callsubr
        </CharString>
        <CharString name="uni0916094D0916">
          1115 1632 642 rmoveto
          -1652 -113 249 hlineto
          -80 callgsubr
          483 145 callgsubr
          -257 hlineto
          -99 callgsubr
          28 16 6 11 10 hvcurveto
          -68 9 55 -27 115 hhcurveto
          -63 callgsubr
          294 -314 hlineto
          -99 callgsubr
          27 16 5 11 10 hvcurveto
          -94 -91 callgsubr
          endchar
        </CharString>
        <CharString name="uni0916094D0924">
          677 1194 642 rmoveto
          -1214 -113 249 hlineto
          -80 callgsubr
          537 -57 -103 198 callgsubr
          61 hlineto
          27 17 5 11 9 hvcurveto
          -64 4 34 -30 102 hhcurveto
          -33 callgsubr
        </CharString>
        <CharString name="uni0916094D0928">
          902 959 12 callgsubr
          -1439 -113 249 hlineto
          -80 callgsubr
          762 -57 -328 198 callgsubr
          82 hlineto
          36 22 9 18 12 hvcurveto
          -19 25 40 -8 58 hhcurveto
          82 callsubr
        </CharString>
        <CharString name="uni0916094D092E">
          920 1207 432 235 callsubr
          -1457 -113 249 hlineto
          -80 callgsubr
          532 251 callsubr
          -110 vlineto
          42 callsubr
          36 22 9 18 12 hvcurveto
          -19 25 40 -8 58 125 callsubr
        </CharString>
        <CharString name="uni0916094D092F">
          812 1099 16 callgsubr
          -1349 -113 249 hlineto
          -80 callgsubr
          408 hlineto
          -32 callsubr
          -177 hlineto
          42 callsubr
          38 21 10 19 12 hvcurveto
          -20 26 41 -9 55 -24 callsubr
        </CharString>
        <CharString name="uni0916094D0930">
          434 951 642 rmoveto
          -971 -113 249 hlineto
          173 callsubr
          294 -294 hlineto
          -27 callgsubr
          529 60 vlineto
          endchar
        </CharString>
        <CharString name="uni0916094D0930094D">
          223 646 349 67 callgsubr
        </CharString>
        <CharString name="uni0916094D0935">
          679 1196 642 30 callsubr
        </CharString>
        <CharString name="uni0916094D0936">
          904 210 230 1 callgsubr
        </CharString>
        <CharString name="uni0917">
          229 223 191 -60 callgsubr
          505 451 rmoveto
          -766 -113 -73 callsubr
          226 callsubr
        </CharString>
        <CharString name="uni0917093C">
          229 170 -117 -67 callsubr
          53 179 -60 callgsubr
          505 451 rmoveto
          -766 -113 -73 callsubr
          226 callsubr
        </CharString>
        <CharString name="uni0917093C094D">
          -26 166 120 callgsubr
          57 191 -60 callgsubr
          255 451 rmoveto
          -516 -113 -73 callsubr
          60 vlineto
          endchar
        </CharString>
        <CharString name="uni0917093C094D0930">
          228 436 -179 -67 callsubr
          -213 321 112 callgsubr
        </CharString>
        <CharString name="uni0917093C094D0930094D">
          103 198 328 rmoveto
          26 5 5 26 vhcurveto
          37 -64 215 callsubr
          77 -137 rmoveto
          317 callsubr
          128 113 -584 363 callgsubr
          vlineto
          110 callsubr
          296 callsubr
          375 142 rmoveto
          -378 -380 rlineto
          160 hlineto
          218 219 rlineto
          -99 -163 28 callsubr
        </CharString>
        <CharString name="uni0917094D">
          -26 223 191 -60 callgsubr
          255 451 rmoveto
          -516 -113 -73 callsubr
          60 vlineto
          endchar
        </CharString>
        <CharString name="uni0917094D0917">
          695 689 191 -60 callgsubr
          -484 hmoveto
          -92 callgsubr
          113 vlineto
          26 5 5 26 vhcurveto
          37 51 callsubr
          971 451 rmoveto
          -1232 -113 -73 callsubr
          296 -57 -58 vlineto
          -66 callsubr
          226 callsubr
        </CharString>
        <CharString name="uni0917094D0918">
          497 796 221 callgsubr
          -573 -338 -60 callgsubr
          785 451 rmoveto
          -1046 -113 -73 callsubr
          84 vlineto
          192 callsubr
          -86 -75 callgsubr
          -96 vlineto
          -48 callsubr
          72 -95 callsubr
        </CharString>
        <CharString name="uni0917094D091C">
          695 223 191 -60 callgsubr
          979 451 rmoveto
          -1240 -113 -73 callsubr
          554 -57 -240 -257 vlineto
          32 callgsubr
          70 72 callsubr
          vlineto
          endchar
        </CharString>
        <CharString name="uni0917094D0923">
          705 742 215 5 callgsubr
          -519 -338 -60 callgsubr
          981 451 rmoveto
          -1242 -113 -73 callsubr
          68 -324 -105 callsubr
          324 226 callsubr
        </CharString>
        <CharString name="uni0917094D0926">
          455 223 191 -60 callgsubr
          731 451 rmoveto
          -992 -113 -73 callsubr
          306 -57 -98 vlineto
          -109 -31 -34 -73 hvcurveto
          -160 11 callgsubr
        </CharString>
        <CharString name="uni0917094D0927">
          575 223 191 -60 callgsubr
          -261 338 rmoveto
          -73 callsubr
          54 356 callsubr
          vlineto
          1119 hmoveto
          31 callgsubr
          -104 193 callsubr
          174 -95 callsubr
        </CharString>
        <CharString name="uni0917094D0927094D092F">
          960 223 191 -60 callgsubr
          -261 338 rmoveto
          -73 callsubr
          54 356 callsubr
          vlineto
          1267 -417 49 callgsubr
          198 hlineto
          33 23 9 16 13 hvcurveto
          -17 26 39 -8 52 -24 callsubr
        </CharString>
        <CharString name="uni0917094D0927094D0935">
          827 223 191 -60 callgsubr
          -261 338 rmoveto
          -73 callsubr
          54 356 callsubr
          vlineto
          1364 hmoveto
          -475 -113 245 99 callsubr
          -140 vlineto
          26 callsubr
          -136 -75 callgsubr
          -104 193 callsubr
          198 hlineto
          31 22 8 14 13 hvcurveto
          -15 22 30 -7 38 58 callsubr
        </CharString>
        <CharString name="uni0917094D0928">
          692 749 215 -96 callgsubr
          -526 -168 -60 callgsubr
          968 451 rmoveto
          -1229 -113 -73 callsubr
          543 -57 -328 vlineto
          143 callgsubr
        </CharString>
        <CharString name="uni0917094D0928094D092F">
          1075 1362 -6 callsubr
          -521 -141 -60 callgsubr
          1351 451 rmoveto
          -1612 -113 -73 callsubr
          662 255 callgsubr
          -30 -81 callgsubr
          -463 -12 callgsubr
          -133 -105 callsubr
          127 70 -127 vlineto
          -88 callsubr
        </CharString>
        <CharString name="uni0917094D092C">
          561 681 332 rmoveto
          -43 callsubr
          -458 -24 -60 callgsubr
          837 451 rmoveto
          -1098 -113 -73 callsubr
          412 -204 232 callsubr
          15 277 callsubr
          -83 -91 callgsubr
          endchar
        </CharString>
        <CharString name="uni0917094D092D">
          710 223 191 -60 callgsubr
          -261 338 rmoveto
          -73 callsubr
          50 113 -506 vlineto
          769 -427 15 callgsubr
          -98 vlineto
          -109 -31 -34 -73 hvcurveto
          -128 vlineto
          93 callsubr
        </CharString>
        <CharString name="uni0917094D092D094D092F">
          1088 223 191 -60 callgsubr
          -261 338 rmoveto
          -73 callsubr
          50 113 -506 vlineto
          1385 -417 -62 callsubr
          100 -62 callgsubr
          53 13 callsubr
          -616 -314 222 callgsubr
          846 327 rmoveto
          -608 -113 114 hlineto
          26 8 -8 -26 354 callsubr
          -193 102 -73 callgsubr
          -86 254 callgsubr
          -116 -105 callsubr
          110 68 -110 vlineto
          -88 callsubr
        </CharString>
        <CharString name="uni0917094D092E">
          710 997 -58 callgsubr
          -526 -128 -60 callgsubr
          986 451 rmoveto
          -1247 -113 -73 callsubr
          313 -97 -98 vlineto
          87 callgsubr
        </CharString>
        <CharString name="uni0917094D092F">
          602 889 -74 callsubr
          -666 -338 -60 callgsubr
          878 451 rmoveto
          -1139 -113 -73 callsubr
          189 vlineto
          -32 callsubr
          -187 hlineto
          -88 callsubr
        </CharString>
        <CharString name="uni0917094D0930">
          228 223 271 112 callgsubr
        </CharString>
        <CharString name="uni0917094D0930094D">
          103 346 -80 rmoveto
          218 219 rlineto
          161 vlineto
          -378 -380 rlineto
          37 351 171 callsubr
          -261 371 rmoveto
          363 callgsubr
          vlineto
          110 callsubr
          -72 -105 callsubr
          244 128 220 callgsubr
        </CharString>
        <CharString name="uni0917094D0930094D092F">
          611 898 -74 callsubr
          -675 -258 171 callsubr
          887 371 rmoveto
          -1148 295 callsubr
          -72 -105 callsubr
          244 198 vlineto
          -32 callsubr
          -136 hlineto
          -334 -336 rlineto
          160 hlineto
          199 200 rlineto
          -30 25 45 -12 66 -24 callsubr
        </CharString>
        <CharString name="uni0917094D0932">
          709 223 191 -60 callgsubr
          985 451 rmoveto
          -1246 -113 -73 callsubr
          560 -57 -96 vlineto
          -21 callsubr
          -238 vlineto
          -73 31 -34 109 vhcurveto
          -48 callgsubr
        </CharString>
        <CharString name="uni0917094D0935">
          469 223 191 -60 callgsubr
          745 451 rmoveto
          -1006 -113 -73 callsubr
          320 64 callgsubr
          124 vlineto
          15 8 5 15 vhcurveto
          11 113 -6 callgsubr
        </CharString>
        <CharString name="uni0917094D0938">
          681 968 363 rmoveto
          -70 hlineto
          -72 callgsubr
          70 hlineto
          -745 -338 -60 callgsubr
          957 451 rmoveto
          -1218 -113 -73 callsubr
          264 vlineto
          14 callsubr
          137 callsubr
          127 287 -250 -97 callsubr
        </CharString>
        <CharString name="uni0918">
          35 322 221 callgsubr
          3 callsubr
          -572 -113 66 hlineto
          192 callsubr
          -86 -75 callgsubr
          -96 vlineto
          -48 callsubr
          72 -95 callsubr
        </CharString>
        <CharString name="uni0918093C094D0930">
          37 295 -179 -67 callsubr
          29 285 86 callsubr
        </CharString>
        <CharString name="uni0918093C094D0930094D">
          -163 354 211 rmoveto
          -121 -107 callsubr
          44 81 callsubr
          113 -33 -107 callsubr
          55 vlineto
          26 8 8 26 vhcurveto
          110 113 -374 -113 66 hlineto
          192 callsubr
          -86 -75 callgsubr
          -96 vlineto
          -72 34 -34 75 -1 vhcurveto
          313 callgsubr
          122 206 rlineto
          -68 -196 28 callsubr
        </CharString>
        <CharString name="uni0918094D">
          -215 412 268 callsubr
          -432 -113 66 vlineto
          192 callsubr
          -86 -75 callgsubr
          -96 vlineto
          -48 callsubr
          211 113 -179 -107 callsubr
          64 81 callsubr
          113 -33 -107 callsubr
          55 vlineto
          26 8 8 26 vhcurveto
          endchar
        </CharString>
        <CharString name="uni0918094D0928">
          493 790 472 rmoveto
          -328 -12 callgsubr
          -140 vlineto
          -45 callgsubr
          -55 -107 callsubr
          64 81 callsubr
          113 -33 -107 callsubr
          55 vlineto
          26 8 8 26 vhcurveto
          546 hlineto
          44 callgsubr
          -1040 -113 66 hlineto
          192 callsubr
          -86 -75 callgsubr
          -96 vlineto
          -48 callsubr
          83 hlineto
          34 24 12 20 11 hvcurveto
          -22 25 41 -10 64 hhcurveto
          82 callsubr
        </CharString>
        <CharString name="uni0918094D092E">
          521 808 -58 callgsubr
          -238 -94 rmoveto
          -45 callgsubr
          -55 -107 callsubr
          64 81 callsubr
          113 -33 -107 callsubr
          55 vlineto
          26 8 8 26 vhcurveto
          316 251 callsubr
          716 317 rmoveto
          -1058 -113 66 hlineto
          192 callsubr
          -86 -75 callgsubr
          -96 vlineto
          -48 callsubr
          83 hlineto
          34 24 12 20 11 hvcurveto
          -22 25 41 -10 64 125 callsubr
        </CharString>
        <CharString name="uni0918094D092F">
          413 700 175 callgsubr
          -55 -107 callsubr
          64 81 callsubr
          113 -33 -107 callsubr
          55 vlineto
          26 8 8 26 vhcurveto
          192 216 callgsubr
          -950 -113 66 hlineto
          192 callsubr
          -86 -75 callgsubr
          -96 vlineto
          -48 callsubr
          83 hlineto
          35 25 13 21 10 hvcurveto
          -24 26 43 -10 60 -24 callsubr
        </CharString>
        <CharString name="uni0918094D0930">
          37 324 235 86 callsubr
        </CharString>
        <CharString name="uni0918094D0930094D">
          -163 354 268 callsubr
          -374 -113 66 vlineto
          192 callsubr
          -86 -75 callgsubr
          -96 vlineto
          -72 34 -34 75 -1 vhcurveto
          313 callgsubr
          122 206 rlineto
          65 -121 vlineto
          -106 callsubr
          44 81 callsubr
          113 -33 -107 callsubr
          55 vlineto
          26 8 8 26 vhcurveto
          endchar
        </CharString>
        <CharString name="uni0919">
          61 434 284 -67 callsubr
          -454 229 rmoveto
          -113 257 -57 -63 vlineto
          -109 -31 -34 -73 hvcurveto
          -55 -19 callsubr
          180 160 171 319 callsubr
        </CharString>
        <CharString name="uni0919093C094D0930">
          61 173 -290 -67 callsubr
          261 445 -67 callsubr
          -454 229 rmoveto
          -113 257 -20 callgsubr
          -65 24 -34 81 249 callgsubr
          150 rlineto
          72 9 22 33 270 callgsubr
          171 319 callsubr
        </CharString>
        <CharString name="uni0919093C094D0930094D">
          61 78 -308 -67 callsubr
          133 hmoveto
          45 callgsubr
          -130 150 rlineto
          57 463 -67 callsubr
          -454 229 rmoveto
          -113 257 -20 callgsubr
          -65 24 -34 81 249 callgsubr
          150 rlineto
          72 9 22 33 270 callgsubr
          171 319 callsubr
        </CharString>
        <CharString name="uni0919094D">
          61 147 -61 rmoveto
          45 callgsubr
          -130 150 rlineto
          121 345 -67 callsubr
          -454 229 rmoveto
          -113 257 -57 -63 vlineto
          -109 -31 -34 -73 hvcurveto
          -55 -19 callsubr
          180 160 171 319 callsubr
        </CharString>
        <CharString name="uni0919094D0930">
          61 434 284 -67 callsubr
          -454 229 rmoveto
          -113 257 -20 callgsubr
          -65 24 -34 81 249 callgsubr
          150 rlineto
          72 9 22 33 270 callgsubr
          171 319 callsubr
        </CharString>
        <CharString name="uni091A">
          2 519 642 rmoveto
          -541 -113 311 197 callgsubr
          -272 -113 73 hlineto
          -11 -12 -6 -18 -24 283 callsubr
        </CharString>
        <CharString name="uni091A093C094D0930">
          2 246 -179 -67 callsubr
          273 692 134 callgsubr
        </CharString>
        <CharString name="uni091A093C094D0930094D">
          -199 318 642 rmoveto
          -340 -113 340 hlineto
          -318 vmoveto
          -81 335 callsubr
          vlineto
          10 callsubr
          -59 23 -33 49 -11 vhcurveto
          -99 -162 rlineto
          179 hlineto
          122 206 rlineto
          -82 -196 28 callsubr
        </CharString>
</ttFont>
